<?xml version='1.0' encoding='utf-8'?>
<svg xmlns="http://www.w3.org/2000/svg" width="100.5px" height="33.65px" viewBox="-8.05 4.35 100.5 33.65" data-shape-id="2756"><path d="M86.6 20.45 L87.1 21.9 Q85.5 22.55 84.05 23.35 Q81.05 24.9 78.75 26.8" fill="#666666" fill-opacity="1" fill-rule="evenodd" stroke="none" /><path d="Q76 30.3 75.25 34.65 L72.9 34.65" stroke="#000000" stroke-width="4.0" fill="none" stroke-opacity="1" /><path d="Q72.2 36.25 71.95 38 L7.15 38 Q5.4 27.65 -8.05 21.9 L-3.8 9.7 L-2.15 11.2" fill="#666666" fill-opacity="1" fill-rule="evenodd" stroke="none" /><path d="L-0.5 6.35 Q8.6 15.3 19.85 9.4" stroke="#000000" stroke-width="4.0" fill="none" stroke-opacity="1" /><path d="Q22.15 8.2 24.6 6.35 L25.15 6.6" stroke="#000000" stroke-width="4.0" fill="none" stroke-opacity="1" /><path d="Q34 10.95 42.6 11.15 L43.15 11.15 Q49.25 11 55.55 8.8" stroke="#000000" stroke-width="4.0" fill="none" stroke-opacity="1" /><path d="L61.15 6.35 L61.65 6.75" stroke="#000000" stroke-width="4.0" fill="none" stroke-opacity="1" /><path d="Q75.5 16.95 86.2 6.35 L90.45 18.55 Q88.85 19.2 87.4 20 L86.6 20.45" stroke="#000000" stroke-width="4.0" fill="none" stroke-opacity="1" /><path d="L82.9 9.7 Q72.05 20.45 58 9.8 L58.05 9.8 Q59.55 9.8 60.6 8.75 Q61.5 7.85 61.65 6.75" fill="#666666" fill-opacity="1" fill-rule="evenodd" stroke="none" /><path d="M25.15 6.6 Q25 7.85 24.1 8.75 Q23.05 9.8 21.55 9.8 L21.5 9.8 Q30.5 14.3 39.25 14.5 L39.8 14.5 Q48.6 14.3 57.65 9.8 Q56.45 9.65 55.55 8.8" fill="#666666" fill-opacity="1" fill-rule="evenodd" stroke="none" /><path d="M78.75 26.8 Q74.55 30.25 72.9 34.65" fill="none" stroke="none" /><path d="L10.45 34.65 Q8.75 24.3 -4.7 18.55 L-2.15 11.2" stroke="#000000" stroke-width="4.0" fill="none" stroke-opacity="1" /><path d="Q8.1 19.65 21.15 9.8 L19.85 9.4" fill="#ffffff" fill-opacity="1" fill-rule="evenodd" stroke="none" /><path d="M86.6 20.45 Q81.6 23.2 78.75 26.8" stroke="#000000" stroke-width="4.0" fill="none" stroke-opacity="1" /></svg>