<?xml version='1.0' encoding='utf-8'?>
<svg xmlns="http://www.w3.org/2000/svg" width="67.1px" height="60.55px" viewBox="-1.5 -1.5 67.1 60.55" data-shape-id="2759"><path d="M0 57.55 L0 0 L64.1 0 L64.1 57.55 L0 57.55" fill="#ffffff" fill-opacity="1" fill-rule="evenodd" stroke="none" /><path d="M0 0" fill="none" stroke="none" /><path d="M43.65 9.6 L43.15 9.5 L42.45 9.1 L42.2 8.35 Q42.1 7.6 42.45 7.2 Q42.9 6.6 43.7 6.7 Q44.25 6.7 44.55 6.95 L44.85 7.3 Q45.3 8.1 44.9 8.8 Q44.55 9.6 43.65 9.6 M53.05 29.95 L53.25 29.05 Q53.7 28.45 54.45 28.45 L54.45 28.4 Q54.95 28.4 55.35 28.75 Q55.75 29.05 55.8 29.55 L55.65 30.45 L54.95 31.1 Q53.95 31.5 53.25 30.55 L53.05 29.95 M48.15 31.45 L48.1 31.2 Q48 30.75 48.25 30.45 L48.9 30.05 L49.1 30 Q49.65 30 49.95 30.45 Q50.25 30.85 50.1 31.3 L49.8 31.75 Q49.35 32.1 48.95 32.05 L48.3 31.65 L48.15 31.45 M39.35 33.65 L39.8 33.75 L40.9 33.65 L41.3 33.65 L41.55 33.15 Q42.3 32 43.6 31.85 Q44.45 31.8 45.25 32.2 Q46.05 32.65 46.4 33.45 Q46.75 34.25 46.6 35.1 Q46.45 36 45.85 36.6 L45.35 37 Q46.6 40.05 46.45 43.4 L46.25 44.7 L46.15 45.1 Q47.3 45.55 48.65 46.7 Q50 47.75 50.4 48.75 L50.7 49.75 Q51.75 49.85 52.2 50.15 Q53.4 50.9 53.2 52.8 Q53.1 54.25 52.05 54.75 L50.85 55.05 L50.15 55.05 L49.95 55.4 L47.75 57.15 Q45.85 58.2 44.45 58 L42.9 57.2 L42.45 56.55 L41.8 56.65 Q37.35 57.35 29.45 56.5 L26.25 56.2 L23 56.35 L19.85 57.1 L16.9 57.2 L16.45 57.65 L15.55 58.25 L12.75 58.4 Q10.7 57.95 9.9 56.7 Q9.45 55.9 9.35 54.65 Q9.35 52.5 10.35 51.25 L11.3 50.3 L11.25 49.4 L11.35 47.95 Q11.7 45.75 13.5 43.85 Q14.1 43.2 14.85 42.85 L14.35 41.55 Q14.2 40.7 14.35 39.75 L14.6 38.45 L14.65 37.9 L15 36.3 L15.35 35.35 L15.85 34.7 Q17.7 32.45 19.85 32.2 L22.25 32.4 L23.35 32.45 Q23.15 31.25 23.25 30.35 Q23.55 28.05 25.55 25.95 L27.4 24.45 Q28.35 23.85 29.2 23.65 L30.6 23.55 L33.45 23.7 Q34.5 24 35.45 24.7 L37.4 26.4 Q38.35 27.5 38.6 28.55 Q38.85 29.5 38.55 31 L38.05 33.65 L39.35 33.65 M49.15 41.85 L49.25 41.25 Q49.65 39.9 51.05 39.75 L51.2 39.75 Q52.6 39.75 53.1 41.05 Q53.65 42.4 52.65 43.3 L51.6 43.9 L50.4 43.8 Q49.15 43.2 49.15 41.85 M23.4 20.5 Q23.65 19.65 24.5 19.2 L25.1 19.1 L25.3 19.05 L26.5 19.45 L27.2 20.45 Q27.4 21.05 27.2 21.7 L26.5 22.65 Q26 23.05 25.35 23.05 Q24.65 23.05 24.15 22.7 Q23.65 22.35 23.45 21.75 Q23.2 21.1 23.4 20.5 M36.6 17.65 L38.8 17.9 Q39.65 18.4 39.9 19.5 Q40.1 20.45 39.7 21.45 Q39.15 22.85 38.05 23.1 L36.2 22.8 L34.95 22.15 Q34.3 21.45 34.5 19.7 Q34.6 18.55 35.1 18.15 Q35.55 17.75 36.6 17.65 M19.2 29.15 Q18.3 28.35 18.45 27.15 Q18.5 26.45 19 25.85 Q19.55 25.3 20.25 25.15 L21.65 25.3 Q22.35 25.6 22.7 26.25 Q23.05 26.9 23 27.65 Q22.9 28.4 22.4 28.95 Q21.8 29.6 20.85 29.65 Q19.9 29.7 19.2 29.15 M12.2 28.95 Q12.45 28.2 13.2 27.85 L13.65 27.75 L13.8 27.8 L13.85 27.7 Q14.95 27.8 15.45 28.7 Q15.9 29.75 15.3 30.55 Q14.5 31.55 13.45 31.2 Q12.25 30.95 12.15 29.75 Q12.05 29.3 12.2 28.95 M5.15 49.4 L5.75 49.2 Q6.85 49.1 7.4 50.05 L7.65 51 L7.3 51.9 L6.4 52.5 L5.35 52.45 L4.55 51.75 Q4.25 51.25 4.3 50.7 Q4.4 49.8 5.15 49.4 M11 43.85 Q11.15 45.15 10.25 46.2 Q8.75 48.05 6.9 47.7 Q5.9 47.5 5.25 46.55 Q4.6 45.65 4.75 44.65 L5.35 43.15 Q5.7 42.45 6.15 42.05 L7.35 41.6 Q8.7 41.45 9.7 42 Q10.85 42.6 11 43.85" fill="#ffffff" fill-opacity="1" fill-rule="evenodd" stroke="none" /><path d="M0 0" fill="none" stroke="none" /><path d="M44.9 25 L45.35 24 L46.25 22.8 L46.6 22.45 L46.8 22.7 Q47.25 23.2 48.15 23.2 Q49.35 23.1 49.8 22.25 L50.2 20.55 L50.5 19.8 L50.9 18.05 L51.1 17.5 Q51.35 16.55 51.2 15.85 L51.2 15.1 Q51.1 14.2 50.45 13.75 L48.3 13.8 L46.4 14.9 L44.6 15.6 Q43.45 16.1 43.2 16.85 Q43 17.45 43.3 18.15 L43.95 18.9 Q42.25 21.75 41.1 25.05 L40.35 27.45 Q38.6 31.85 38.05 34.65 L37.85 35.25 L37.25 37.25 Q36.55 40.3 37.3 43.25 Q37.4 44.15 37.95 44.05 Q38.35 44.05 38.6 43.25 L39.6 38.2 Q39.9 36.6 40.15 35.85 L42.1 30.85 Q43.75 26.6 44.2 26.05 L44.8 25.2 L44.9 25 M46.3 40.8 L47.05 39.5 L48.4 38.4 Q49.5 37.9 50.45 37.7 L52.7 37.85 L52.75 37.9 L52.7 37.95 Q52.25 38.4 52.15 39.1 Q52.1 39.75 52.5 40.2 Q52.85 40.6 54.15 40.95 L56.6 41.4 L58.1 41.55 Q58.95 41.55 59.45 40.9 Q59.95 40.25 59.7 39.25 L59.15 37.6 L58.8 35.55 Q58.4 34.3 57.75 33.8 Q57.15 33.4 56.4 33.55 Q55.65 33.75 55.4 34.35 L55.3 35.2 L55 35 Q53.65 34.05 51.5 34.05 Q48.45 34.15 46 35.9 L44.8 37 L43.45 39.3 L42.85 40.45 L42.55 42.05 L42.05 44.35 L41.8 47.4 Q41.8 48.15 41.95 48.5 Q42.35 49.1 42.85 49 L43.5 48.3 L44.05 45.1 L44.95 43.05 L45.55 41.9 L46.3 40.8" fill="#ffffff" fill-opacity="1" fill-rule="evenodd" stroke="none" /><path d="M33.4 12.45 L33.4 12.65 L33.4 12.9 L33.4 13.1 L33.4 13.35 L33.4 13.55 L33.4 13.8 L33.4 14 L33.4 14.25 L33.4 14.45 L33.4 14.7 L33.4 14.9 L33.4 15.15 L33.4 15.35 L33.4 15.6 L33.4 15.8 L33.4 16.05 L33.35 16.25 L33.35 16.5 L33.35 16.7 L33.35 16.95 L33.35 17.2 L33.35 17.4 L33.35 17.65 L33.35 17.85 L33.35 18.1 L33.35 18.3 L33.35 18.55 L33.35 18.75 L33.25 19 L33.25 19.2 L33.25 19.45 L33.25 19.65 L33.25 19.9 L33.25 20.1 L33.25 20.35 L33.25 20.55 L33.25 20.8 L33.25 21 L33.25 21.25 L33.25 21.45 L33.25 21.7 L33.25 21.9 L33.25 22.15 L33.25 22.35 L33.25 22.6 L33.25 22.8 L33.25 23.05 L33.25 23.3 L33.25 23.5 L33.25 23.75 L33.25 23.95 L33.25 24.2 L33.25 24.4 L33.25 24.65 L33.25 24.85 L33.25 25.1 L33.25 25.3 L33.25 25.55 L33.25 25.75 L33.25 26 L33.25 26.2 L33.25 26.45 L33.25 26.65 L33.2 26.9 L33.2 27.1 L33.2 27.35 L33.2 27.55 L33.2 27.8 L33.2 28 L33.2 28.25 L33.2 28.45 L33.1 28.7 L33.1 28.9 L33.1 29.15 L33.1 29.35 L33.1 29.6 L33.1 29.85 L33.1 30.05 L33.1 30.3 L33.1 30.5 L33.1 30.75 L33.1 30.95 L33.1 31.2 L33.1 31.4 L33.1 31.65 L33.1 31.85 L33.1 32.1 L33.1 32.3 L33.1 32.55 L33.1 32.75 L33.1 33 L33.1 33.2 L33.1 33.45 L33.1 33.65 L33.1 33.9 L33.1 34.1 L33.1 34.35 L33.1 34.55 L33.1 34.8 L33.1 35 L33.1 35.25 L33.1 35.45 L33.1 35.7 L33.1 35.9 L33.1 36.15 L33.1 36.4 L33.1 36.6 L33.1 36.85 L33.1 37.05 L33.1 37.3 L33.1 37.5 L33.1 37.75 L33.1 37.95 L33.1 38.2 L33.05 38.4 L33.05 38.65 L33.05 38.85 L33.05 39.1 L33.05 39.3 L33.05 39.55 L33.05 39.75 L33.05 40 L32.95 40.2 L32.95 40.45 L32.95 40.65 L32.95 40.9 L32.95 41.1 L32.95 41.35 L32.95 41.55 L32.95 41.8 L32.95 42 L32.95 42.25 L32.9 42.5 L32.9 42.7 L32.9 42.95 L32.8 43.15 L32.8 43.4 L32.75 43.6 L32.75 43.85 L32.65 44.05 L32.65 44.3 L32.6 44.5 L32.6 44.75 L32.6 44.95 L32.6 45.2 L32.6 45.4 L32.6 45.65 L32.6 45.85 L32.6 46.1 L32.6 46.3 L32.6 46.55 L32.6 46.75 L32.6 47 L32.6 47.2 L32.6 47.45 L32.6 47.65 L32.6 47.9 L32.6 48.1 L32.6 48.35 L32.6 48.55 L32.6 48.8 L32.6 49.05 L32.6 49.25 L32.6 49.5 L32.6 49.7 L32.6 49.95 L32.6 50.15 L32.6 50.4 L32.6 50.6 L32.5 50.85 L32.5 51.05 L32.5 51.3 L32.45 51.5 L32.45 51.75 L32.5 51.95 L32.65 52.2 L32.65 52.4 L32.65 52.65 L32.5 52.85 L32.3 53.1 L31.9 53.25 L31.6 53.25 L31.15 53.1 L30.95 52.85 L30.85 52.65 L30.8 52.4 L30.8 52.2 L30.8 51.95 L30.8 51.75 L30.7 51.5 L30.7 51.3 L30.7 51.05 L30.65 50.85 L30.65 50.6 L30.65 50.4 L30.65 50.15 L30.65 49.95 L30.65 49.7 L30.65 49.5 L30.65 49.25 L30.65 49.05 L30.65 48.8 L30.65 48.55 L30.65 48.35 L30.65 48.1 L30.65 47.9 L30.65 47.65 L30.65 47.45 L30.65 47.2 L30.65 47 L30.65 46.75 L30.65 46.55 L30.65 46.3 L30.65 46.1 L30.65 45.85 L30.65 45.65 L30.65 45.4 L30.65 45.2 L30.65 44.95 L30.65 44.75 L30.65 44.5 L30.55 44.3 L30.5 44.05 L30.5 43.85 L30.4 43.6 L30.4 43.4 L30.35 43.15 L30.35 42.95 L30.35 42.7 L30.35 42.5 L30.25 42.25 L30.25 42 L30.25 41.8 L30.25 41.55 L30.25 41.35 L30.25 41.1 L30.25 40.9 L30.25 40.65 L30.25 40.45 L30.25 40.2 L30.2 40 L30.2 39.75 L30.2 39.55 L30.2 39.3 L30.2 39.1 L30.2 38.85 L30.2 38.65 L30.1 38.4 L30.1 38.2 L30.1 37.95 L30.1 37.75 L30.1 37.5 L30.1 37.3 L30.1 37.05 L30.1 36.85 L30.1 36.6 L30.1 36.4 L30.1 36.15 L30.1 35.9 L30.1 35.7 L30.1 35.45 L30.1 35.25 L30.1 35 L30.1 34.8 L30.1 34.55 L30.1 34.35 L30.1 34.1 L30.1 33.9 L30.1 33.65 L30.1 33.45 L30.1 33.2 L30.1 33 L30.1 32.75 L30.1 32.55 L30.1 32.3 L30.1 32.1 L30.1 31.85 L30.1 31.65 L30.1 31.4 L30.1 31.2 L30.1 30.95 L30.1 30.75 L30.1 30.5 L30.1 30.3 L30.1 30.05 L30.1 29.85 L30.1 29.6 L30.1 29.35 L30.1 29.15 L30.1 28.9 L30.05 28.7 L30.05 28.45 L30.05 28.25 L30.05 28 L30.05 27.8 L30.05 27.55 L30.05 27.35 L30.05 27.1 L29.95 26.9 L29.95 26.65 L29.95 26.45 L29.95 26.2 L29.95 26 L29.95 25.75 L29.95 25.55 L29.95 25.3 L29.95 25.1 L29.95 24.85 L29.95 24.65 L29.95 24.4 L29.95 24.2 L29.95 23.95 L29.95 23.75 L29.95 23.5 L29.95 23.3 L29.95 23.05 L29.95 22.8 L29.95 22.6 L29.95 22.35 L29.95 22.15 L29.95 21.9 L29.95 21.7 L29.95 21.45 L29.95 21.25 L29.95 21 L29.95 20.8 L29.95 20.55 L29.95 20.35 L29.95 20.1 L29.95 19.9 L29.95 19.65 L29.95 19.45 L29.95 19.2 L29.85 19 L29.85 18.75 L29.85 18.55 L29.85 18.3 L29.85 18.1 L29.85 17.85 L29.85 17.65 L29.85 17.4 L29.85 17.2 L29.85 16.95 L29.85 16.7 L29.85 16.5 L29.8 16.25 L29.8 16.05 L29.8 15.8 L29.8 15.6 L29.8 15.35 L29.8 15.15 L29.8 14.9 L29.8 14.7 L29.8 14.45 L29.8 14.25 L29.8 14 L29.8 13.8 L29.8 13.55 L29.8 13.35 L29.8 13.1 L29.8 12.9 L29.8 12.65 L29.8 12.45 L29.8 12.4 L28 12.3 Q27.25 11.8 27.45 10.65 Q27.5 10.05 28.1 8.95 L30 6 Q30.95 4.55 31.95 4.6 L32.2 4.65 L32.8 4.6 Q33.35 4.8 34 6.05 L35 7.75 L35.95 9.5 Q36.7 11.2 35.95 12.25 Q35.25 13.1 34.2 12.85 L33.4 12.4 L33.4 12.45 M19.3 25 L18.85 24 L17.95 22.8 L17.6 22.45 L17.4 22.7 Q16.95 23.2 16.05 23.2 Q14.85 23.1 14.4 22.25 L14 20.55 L13.7 19.8 L13.3 18.05 L13.1 17.5 Q12.85 16.55 13 15.85 L13 15.1 Q13.1 14.2 13.75 13.75 L15.9 13.8 Q16.55 14.1 17.8 14.9 L19.6 15.6 Q20.75 16.1 21 16.85 Q21.2 17.45 20.9 18.15 L20.25 18.9 Q21.95 21.75 23.1 25.05 L23.85 27.45 Q25.6 31.85 26.15 34.65 L26.35 35.25 L26.95 37.25 Q27.65 40.3 26.9 43.25 Q26.8 44.15 26.25 44.05 Q25.85 44.05 25.6 43.25 L24.6 38.2 L24.05 35.85 L22.1 30.85 Q20.45 26.6 20 26.05 L19.4 25.2 L19.3 25 M18.1 40.8 L17.35 39.5 L16 38.4 L13.95 37.7 L11.7 37.85 L11.65 37.9 L11.7 37.95 Q12.15 38.4 12.25 39.1 Q12.3 39.75 11.9 40.2 Q11.55 40.6 10.25 40.95 L7.8 41.4 L6.3 41.55 Q5.45 41.55 4.95 40.9 Q4.45 40.25 4.7 39.25 L5.25 37.6 L5.6 35.55 Q6 34.3 6.65 33.8 Q7.25 33.4 8 33.55 Q8.75 33.75 9 34.35 L9.1 35.2 L9.4 35 Q10.75 34.05 12.9 34.05 Q15.95 34.15 18.4 35.9 L19.6 37 L20.95 39.3 L21.55 40.45 L21.85 42.05 L22.35 44.35 L22.6 47.4 L22.45 48.5 Q22.05 49.1 21.55 49 Q21.1 48.85 20.9 48.3 L20.35 45.1 L19.45 43.05 L18.85 41.9 L18.1 40.8" fill="#ffffff" fill-opacity="1" fill-rule="evenodd" stroke="none" /><path d="M0 0" fill="none" stroke="none" /><path d="L64.1 0 L64.1 57.55 L0 57.55 L0 0" fill="none" stroke="none" /></svg>