<?xml version='1.0' encoding='utf-8'?>
<svg xmlns="http://www.w3.org/2000/svg" width="84.2px" height="113.55px" viewBox="-0.25 -10.35 84.2 113.55" data-shape-id="2761"><path d="M2 79.3 L-0.25 79.3 L-0.25 3.6 L1 2.7 Q38.2 -23.85 83.95 3.6 L83.95 79.3 L81.65 79.3 L81.65 103.2 L2 103.2 L2 79.3" fill="#111111" fill-opacity="1" fill-rule="evenodd" stroke="none" /><path d="M13.4 13.05 L13.4 9.45 L77.5 9.45 L77.5 67 L73.9 67" fill="#000000" fill-opacity="0.498" fill-rule="evenodd" stroke="none" /><path d="L73.9 70.6 L9.8 70.6 L9.8 13.05 L13.4 13.05" fill="none" stroke="none" /><path d="L13.4 13.45 L73.5 13.45 L73.5 67 L73.9 67" fill="#000000" fill-opacity="0.498" fill-rule="evenodd" stroke="none" /><path d="M0 0" fill="none" stroke="none" /><path d="M60.45 80.2 L82.1 78.65 L82.2 95.25 L60.55 96.85 L60.45 80.2" fill="#000000" fill-opacity="0.498" fill-rule="evenodd" stroke="none" /><path d="M21.2 79.25 L42.85 79.25 L40.95 95.85 L19.3 95.85 L21.2 79.25" fill="#111111" fill-opacity="1" fill-rule="evenodd" stroke="none" /></svg>