<?xml version='1.0' encoding='utf-8'?>
<svg xmlns="http://www.w3.org/2000/svg" width="11.9px" height="26.45px" viewBox="-1 0 11.9 26.45" data-shape-id="2762"><path d="M0 15.95 Q0.3 15.65 0.8 15.55 L1.35 15.4 L0.65 11.65 Q1.11022e-16 9.85 0.05 8.2 Q0.05 7.45 0.2 7.1 L0.65 6.15 L3.75 1.25 L4.2 0.8 L4.8 0.1 L5.95 0.25 L6.55 1.1 L8 4.8 L8.55 6.3 L8.9 6.9 L9.35 7.7 L9.3 8.85 L8.85 10.95 L8.2 14.4 L9.1 14.25 Q9.7 14.35 10 14.7 L10.25 15.15 L10.45 15.3 Q10.9 15.7 10.9 17.05 L10.9 18.25 L10.8 19.45 Q10.65 20.15 10.15 20.4 L9.2 20.7 L7.95 20.85 L8 22.3 L8.1 24.05 Q8.3 25.15 8.1 25.55 Q7.7 26.2 6.55 26.3 L4.3 26.45 L3.05 26.1 Q2.5 25.7 2.5 24.75 L2.6 23.2 L2.35 21.8 L2.35 21.55 L1.45 21.65 Q0.15 21.75 -0.25 21.3 L-0.75 20.2 L-0.95 19.6 L-1 18.45 Q-1 16.8 -0.5 16.35 L-0.1 16.1 L-2.63678e-15 15.95" fill="#000000" fill-rule="evenodd" stroke="none" /><path d="M6.1 14.6 L6.35 11.95 L6.75 8.55 L4.8 3.3 L3.05 6.8 L2.65 7.95 Q2.55 8.45 2.8 9.85 L3.2 11.9 L4 15 L6.1 14.7 L6.1 14.6" fill="#d0d0d0" fill-rule="evenodd" stroke="none" /><path d="M4.2 17.55 L2.9 17.75 L1.75 18.1 L1.7 18.65 L1.8 18.95 L2 19.05 L3.7 18.9 L8.05 18.2 L8.4 18.05 L8.5 17.7 L8.5 16.95 L4.2 17.55 M4.85 23.8 L5.3 23.85 L5.7 23.5 L5.8 22.45 L5.8 21.35 L5.85 21.1 L4.65 21.25 L4.85 23.8" fill="#858585" fill-rule="evenodd" stroke="none" /></svg>