<?xml version='1.0' encoding='utf-8'?>
<svg xmlns="http://www.w3.org/2000/svg" width="14.55px" height="13.4px" viewBox="-2.55 8.3 14.55 13.4" data-shape-id="2763"><path d="M6.7 8.4 L8.4 8.3 Q9.85 8.45 10.45 9 L11.1 9.75 Q11.75 10.65 11.85 11.3 L12 12.3 Q12 13.85 11.3 15.25 Q10.55 16.8 8.7 18.35 L6 20.6 L5.65 21.25 Q5.15 21.8 4.5 21.7 Q3.85 21.6 3 20.75 L1.4 19.3 L0.1 18.4 L-0.9 17.45 Q-2.1 16.3 -2.35 15.5 Q-2.6 14.85 -2.5 13.7 Q-2.4 12.15 -2.1 11.45 Q-1.55 10.05 -0.25 9.25 Q0.9 8.55 2.5 8.45 L4.2 8.85 L5.1 9.5 L5.15 9.55 Q5.85 8.65 6.7 8.4" fill="#000000" fill-rule="evenodd" stroke="none" /><path d="M5.2 17.45 L6.15 16.6 L8.5 14.3 L9.25 13 Q9.5 12.2 9.1 11.6 Q8.6 11.05 7.8 11.05 L7.15 11.15 L6.55 12.2 L6.05 12.65 L5.8 12.85 L5.5 12.85 L4.95 12.75 L4.25 12.15 L4.05 11.65 L2.95 10.95 L2.35 10.9 Q1.35 11.05 1.05 11.65 L0.75 12.35 L0.55 13.75 Q0.65 14.3 1.3 15.1 L2.05 15.95 L3.05 16.6 L4.75 18.15 L5.2 17.45" fill="#a78484" fill-rule="evenodd" stroke="none" /></svg>