<?xml version='1.0' encoding='utf-8'?>
<svg xmlns="http://www.w3.org/2000/svg" width="14.3px" height="24.95px" viewBox="-2.15 1 14.3 24.95" data-shape-id="2764"><path d="M0.85 12 Q0.2 10.3 0.25 8.75 Q0.25 8.05 0.4 7.7 L0.85 6.8 L3.95 2.2 L4.4 1.75 Q4.5 1.35 5 1.1 L6.15 1.25 L6.75 2.05 L8.2 5.55 L8.75 6.95 L9.1 7.5 L9.55 8.25 L9.5 9.35 L9.05 11.35 L8.45 14.25 Q9.8 14.4 10.45 14.8 L11.1 15.4 Q11.8 16.1 11.95 16.55 L12.15 17.35 Q12.25 18.55 11.65 19.65 Q11 20.8 9.25 22.05 L8.2 22.8 L8.3 23.7 Q8.5 24.7 8.3 25.1 Q7.9 25.7 6.75 25.8 L4.5 25.95 L3.25 25.6 Q2.7 25.25 2.7 24.35 L2.8 23.2 L2.1 22.75 L0.75 22.1 L-0.35 21.35 L-1.9 19.8 Q-2.2 19.35 -2.15 18.45 L-1.9 16.7 Q-1.45 15.6 -0.2 15 L1.35 14.55 L0.85 12" fill="#000000" fill-rule="evenodd" stroke="none" /><path d="M6.55 12.25 L6.95 9.05 L5 4.1 L3.25 7.4 L2.85 8.5 Q2.75 8.95 3 10.3 L3.4 12.2 L4.05 14.65 L4.2 14.7 L4.9 15.05 L5.5 15 Q5.85 14.65 6.3 14.5 L6.55 12.25" fill="#d0d0d0" fill-rule="evenodd" stroke="none" /><path d="M5.7 21.35 L6 21.15 L6.6 20.65 L8.8 18.85 L9.5 17.9 Q9.7 17.25 9.25 16.8 Q8.75 16.35 7.95 16.35 L7.3 16.45 L6.75 17.25 L6.75 17.3 L6.25 17.6 L6.05 17.8 L5.75 17.8 L5.2 17.7 L4.8 17.5 L4.45 17.2 L4.2 16.85 Q3.55 16.35 3.1 16.35 L2.5 16.3 Q1.55 16.35 1.25 16.85 Q1.05 17 1 17.4 L0.9 18.45 L1.7 19.55 L2.55 20.2 L3.55 20.65 L4.95 21.6 L5.3 21.9 L5.7 21.35" fill="#a78484" fill-rule="evenodd" stroke="none" /></svg>