<?xml version='1.0' encoding='utf-8'?>
<svg xmlns="http://www.w3.org/2000/svg" width="14.6px" height="23.1px" viewBox="-2.35 2.25 14.6 23.1" data-shape-id="2765"><path d="M1.7 15.05 L1.4 15.15 L1.35 11.2 L-1.1 8.1 L2.6 6.8 L4.75 3.5 L7.2 6.65 L11 7.65 L8.7 10.9 L8.95 14.9 L6.8 14.25" stroke="#000000" stroke-width="2.5" fill="none" stroke-opacity="1" /><path d="L6.8 14.7 L6.05 14.5" fill="#c5c5c5" fill-opacity="1" fill-rule="evenodd" stroke="none" /><path d="L6.4 23.95 L4.3 24.05" stroke="#000000" stroke-width="2.5" fill="none" stroke-opacity="1" /><path d="L2.95 24.1 L3 23.8" stroke="#000000" stroke-width="2.5" fill="none" stroke-opacity="1" /><path d="L0.8 23.85 L1.7 15.05" fill="#838383" fill-opacity="1" fill-rule="evenodd" stroke="none" /><path d="L1.8 13.95 L2.95 13.5 L2.95 13.45 L3.85 13.85 L3.9 14.2" fill="#ffffff" fill-opacity="1" fill-rule="evenodd" stroke="none" /><path d="L3.95 14.15" stroke="#000000" stroke-width="2.5" fill="none" stroke-opacity="1" /><path d="L4.45 14" stroke="#000000" stroke-width="2.5" fill="none" stroke-opacity="1" /><path d="L5.1 13.75 L5.1 13.7 L6.05 14.05 L6.8 14.25" stroke="#000000" stroke-width="2.5" fill="none" stroke-opacity="1" /><path d="M6.05 14.5 L6.05 14.05" stroke="#000000" stroke-width="2.5" fill="none" stroke-opacity="1" /><path d="M3.95 14.15 L3.9 14.7" stroke="#000000" stroke-width="2.5" fill="none" stroke-opacity="1" /><path d="L4.25 23.75" fill="#838383" fill-opacity="1" fill-rule="evenodd" stroke="none" /><path d="L4.3 24.05" fill="none" stroke="none" /><path d="M3.9 14.7 L3.9 14.2" fill="#838383" fill-opacity="1" fill-rule="evenodd" stroke="none" /><path d="L1.7 15.05" stroke="#000000" stroke-width="2.5" fill="none" stroke-opacity="1" /><path d="M3 23.8 L4.25 23.75" fill="none" stroke="none" /><path d="M6.05 14.5 L4.45 14" fill="#c5c5c5" fill-opacity="1" fill-rule="evenodd" stroke="none" /><path d="M3.9 14.7 L3 23.8" stroke="#000000" stroke-width="2.5" fill="none" stroke-opacity="1" /></svg>