<?xml version='1.0' encoding='utf-8'?>
<svg xmlns="http://www.w3.org/2000/svg" width="17.95px" height="23.3px" viewBox="-3.75 1.95 17.95 23.3" data-shape-id="2766"><path d="M5.85 4.3 L5.85 4 L7.05 4.05" stroke="#000000" stroke-width="2.5" fill="none" stroke-opacity="1" /><path d="L9.05 4.15 L8.5 13.35" stroke="#000000" stroke-width="2.5" fill="none" stroke-opacity="1" /><path d="L9.2 13.15 L9.15 13.6" fill="#c5c5c5" fill-opacity="1" fill-rule="evenodd" stroke="none" /><path d="L11.25 12.95 L10.9 16.85 L12.95 20 L9.35 20.95 L7 24 L5.1 20.8 L4.65 20.65" stroke="#000000" stroke-width="2.5" fill="none" stroke-opacity="1" /><path d="L4.65 21.55 L4.75 23.05 Q4.95 24 4.75 24.4 Q4.4 24.95 3.3 25.05 L1.2 25.2 L0.05 24.9 Q-0.5 24.5 -0.5 23.7 L-0.4 22.3 L-0.65 21.1 L-0.65 20.85 L-1.45 20.95 Q-2.7 21.05 -3.05 20.65 L-3.55 19.7 L-3.7 19.15 L-3.75 18.15 Q-3.75 16.7 -3.3 16.3 L-2.9 16.1 L-2.85 15.95 Q-2.55 15.65 -2.1 15.6 L-1.55 15.45 L-2.2 12.15 Q-2.85 10.55 -2.8 9.1 L-2.65 8.2 L-2.2 7.3 L0.7 3.05 L1.1 2.6 Q1.2 2.2 1.65 2.05 L2.75 2.15 L3.3 2.9 L3.95 4.25" fill="#000000" fill-opacity="1" fill-rule="evenodd" stroke="none" /><path d="L5.85 4.3 L7 4.35" fill="#838383" fill-opacity="1" fill-rule="evenodd" stroke="none" /><path d="L7.05 4.05" fill="#8f8f8f" fill-opacity="1" fill-rule="evenodd" stroke="none" /><path d="M3.95 4.25 L4.65 6.15 L5.2 7.45 L5.95 8.7 L5.9 9.7 L5.45 11.55 L5.15 13.1" fill="#000000" fill-opacity="1" fill-rule="evenodd" stroke="none" /><path d="L6.45 13.65" stroke="#000000" stroke-width="2.5" fill="none" stroke-opacity="1" /><path d="L6.5 13.15" fill="none" stroke="none" /><path d="L5.85 4.3" stroke="#000000" stroke-width="2.5" fill="none" stroke-opacity="1" /><path d="M2.9 14.75 L3.1 12.4 L3.5 9.45 L1.65 4.85 L0.05 7.9 L-0.35 8.9 L-0.2 10.55 L0.15 12.35 L0.9 15.15 L2.9 14.85 L2.9 14.75" fill="#000000" fill-opacity="1" fill-rule="evenodd" stroke="none" /><path d="M9.15 13.6 L8.45 13.8 L7.55 14.1 L7.55 14.05 L6.95 13.8" stroke="#000000" stroke-width="2.5" fill="none" stroke-opacity="1" /><path d="L6.5 13.7" stroke="#000000" stroke-width="2.5" fill="none" stroke-opacity="1" /><path d="L6.45 13.65" stroke="#000000" stroke-width="2.5" fill="none" stroke-opacity="1" /><path d="L6.4 13.95 L5.55 14.35 L5.55 14.3 L4.95 14.05" fill="#838383" fill-opacity="1" fill-rule="evenodd" stroke="none" /><path d="L4.85 14.6 L5.7 14.45 L6.55 14.85 L6.8 15.25 L6.95 15.4 Q7.4 15.7 7.4 16.95 L7.4 17.95 L7.3 19 L6.7 19.85 L5.8 20.15 L4.6 20.3 L4.65 20.65" fill="#000000" fill-opacity="1" fill-rule="evenodd" stroke="none" /><path d="M8.5 13.35 L8.45 13.8" stroke="#000000" stroke-width="2.5" fill="none" stroke-opacity="1" /><path d="M6.5 13.7 L6.5 13.15" stroke="#000000" stroke-width="2.5" fill="none" stroke-opacity="1" /><path d="L7 4.35" fill="#838383" fill-opacity="1" fill-rule="evenodd" stroke="none" /><path d="M1.1 17.35 L-0.1 17.5 L-1.2 17.85 L-1.25 18.35 L-1.15 18.6 L-0.95 18.7 L0.65 18.55 L4.7 17.95 L5.05 17.8 L5.15 17.45 L5.15 16.85 L3.6 17.1 L1.1 17.35" fill="#000000" fill-opacity="1" fill-rule="evenodd" stroke="none" /><path d="M8.5 13.35 L6.95 13.8" fill="#8f8f8f" fill-opacity="1" fill-rule="evenodd" stroke="none" /><path d="M1.7 22.85 L2.15 22.9 L2.5 22.55 L2.6 21.65 L2.6 20.7 L2.65 20.45 L1.55 20.6 L1.7 22.85" fill="#000000" fill-opacity="1" fill-rule="evenodd" stroke="none" /><path d="M5.15 13.1 L4.95 14.05" fill="#838383" fill-opacity="1" fill-rule="evenodd" stroke="none" /></svg>