<?xml version='1.0' encoding='utf-8'?>
<svg xmlns="http://www.w3.org/2000/svg" width="14.6px" height="24.8px" viewBox="-2.15 1.45 14.6 24.8" data-shape-id="2767"><path d="M1.9 14.25 L1.6 14.35 L1.55 10.4 L-0.9 7.3 L2.8 6 L4.95 2.7 L7.4 5.85 L11.2 6.85 L8.9 10.1 L9.15 14.1 L7 13.45" stroke="#000000" stroke-width="2.5" fill="none" stroke-opacity="1" /><path d="L7 13.9 L6.25 13.7" fill="#c5c5c5" fill-opacity="1" fill-rule="evenodd" stroke="none" /><path d="L6.3 14.7" stroke="#000000" stroke-width="2.5" fill="none" stroke-opacity="1" /><path d="Q6.55 14.5 6.8 14.45 L8.35 14.35 Q9.65 14.45 10.15 14.95 L10.75 15.65 L11.4 17 L11.55 17.9 Q11.55 19.3 10.9 20.55 Q10.25 21.9 8.6 23.3 L6.2 25.3 L5.9 25.85 Q5.45 26.35 4.85 26.25 Q4.3 26.2 3.55 25.45 L2.1 24.15 L0.95 23.35 L0.05 22.5 L-1.25 20.75 L-1.35 19.15 L-1 17.15 Q-0.5 15.9 0.65 15.2 Q1.2 14.85 1.85 14.65" fill="#000000" fill-opacity="1" fill-rule="evenodd" stroke="none" /><path d="L1.9 14.25" fill="#838383" fill-opacity="1" fill-rule="evenodd" stroke="none" /><path d="L2 13.15 L3.15 12.7 L3.15 12.65 L4.05 13.05 L4.1 13.4" fill="#ffffff" fill-opacity="1" fill-rule="evenodd" stroke="none" /><path d="L4.15 13.35" stroke="#000000" stroke-width="2.5" fill="none" stroke-opacity="1" /><path d="L4.65 13.2" stroke="#000000" stroke-width="2.5" fill="none" stroke-opacity="1" /><path d="L5.3 12.95 L5.3 12.9 L6.25 13.25 L7 13.45" stroke="#000000" stroke-width="2.5" fill="none" stroke-opacity="1" /><path d="M6.25 13.7 L6.25 13.25" stroke="#000000" stroke-width="2.5" fill="none" stroke-opacity="1" /><path d="M4.15 14.65 L4.6 14.85 L5.4 15.4 L5.45 15.45 L6.3 14.7" fill="#000000" fill-opacity="1" fill-rule="evenodd" stroke="none" /><path d="M5.5 22.5 L6.35 21.75 L6.55 21.6 L8.4 19.7 L9.1 18.55 Q9.3 17.8 8.95 17.3 Q8.5 16.8 7.8 16.8 L7.2 16.9 L6.7 17.8 L6.4 18.1 L6.25 18.2 L6 18.4 L5.75 18.4 L5.25 18.3 L4.65 17.75 L4.45 17.3 L4.25 17.1 L3.8 16.8 L3.5 16.7 L2.95 16.65 Q2.05 16.8 1.8 17.3 Q1.6 17.5 1.55 17.85 L1.5 17.95 L1.35 19.2 L1.4 19.35 L2 20.4 L2.7 21.15 L3.35 21.65 L3.55 21.75 L4.45 22.45 L5.1 23.1 L5.5 22.5" fill="#a78484" fill-opacity="1" fill-rule="evenodd" stroke="none" /><path d="M4.15 13.35 L4.1 13.9" stroke="#000000" stroke-width="2.5" fill="none" stroke-opacity="1" /><path d="L4.15 14.65" fill="#838383" fill-opacity="1" fill-rule="evenodd" stroke="none" /><path d="L4.05 14.6 L3.1 14.45 L1.85 14.65" fill="#000000" fill-opacity="1" fill-rule="evenodd" stroke="none" /><path d="M4.1 13.9 L4.1 13.4" fill="none" stroke="none" /><path d="L1.9 14.25 M4.1 13.9 L4.05 14.6" stroke="#000000" stroke-width="2.5" fill="none" stroke-opacity="1" /><path d="M6.25 13.7 L4.65 13.2" fill="#c5c5c5" fill-opacity="1" fill-rule="evenodd" stroke="none" /></svg>