<?xml version='1.0' encoding='utf-8'?>
<svg xmlns="http://www.w3.org/2000/svg" width="13.5px" height="11.1px" viewBox="-1.8 8.8 13.5 11.1" data-shape-id="2769"><path d="M7.9 13.95 L8.15 13.2 Q8.15 12.6 7.7 12.25 Q7.35 12 6.75 11.85 Q5.4 11.7 4.2 12.3 Q3.2 12.8 2.15 13.9 L1 15.55 L0.9 15.8 L0.8 16.1 L1 16.75 L2.15 18.35 L2.25 18.4 L2.7 19 Q2.95 19.4 2.7 19.7 L1.45 19.75 Q-0.2 19 -1.1 17.75 Q-2.1 16.2 -1.7 14.65 L-1.4 13.65 L-1.35 13.5 L-1.1 12.65 L-0.4 11.75 L0.45 10.9 L0.5 10.85 Q1.25 10.2 2.25 9.7 L2.45 9.6 Q4.2 8.8 6.1 8.8 Q8.25 8.8 9.95 9.75 L11.1 10.8 Q11.45 11.35 11.65 12.7 Q11.8 14.35 11.4 15.2 L10.55 16.65 L10.1 17.7 L9.85 18 L9.15 18.45 L8.15 18.85 L6.3 19.25 L5.2 19.1 L4.35 18.75 L3.55 18.35 L3.5 18.35 L3.05 18 L2.35 16.75 L2.1 15.5 Q2.1 14.3 3.35 13.55 Q4.6 12.8 5.75 13.15 Q7.1 13.55 7.4 14.85 L7.8 14.5 L7.9 13.95" fill="#000000" fill-rule="evenodd" stroke="none" /></svg>