<?xml version='1.0' encoding='utf-8'?>
<svg xmlns="http://www.w3.org/2000/svg" width="27.3px" height="47.75px" viewBox="0 -2 27.3 47.75" data-shape-id="2777"><path d="M6.05 4.55 L7.55 0 L17.85 8.65 L20.05 28.5" stroke="#000000" stroke-width="4.0" fill="none" stroke-opacity="1" /><path d="L25.3 27.1" stroke="#000000" stroke-width="4.0" fill="none" stroke-opacity="1" /><path d="M7.15 31.95 L0 15.7 L4.3 3.15 L6.05 4.55" fill="#999999" fill-opacity="1" fill-rule="evenodd" stroke="none" /><path d="L14.65 11.8 L16.6 29.4" fill="#ffffff" fill-opacity="1" fill-rule="evenodd" stroke="none" /><path d="L20.05 28.5" stroke="#000000" stroke-width="4.0" fill="none" stroke-opacity="1" /><path d="L23.2 40.25 L19.4 41.25" stroke="#000000" stroke-width="4.0" fill="none" stroke-opacity="1" /><path d="L19.95 43.35 L11.1 45.75 L7.95 34" fill="#666666" fill-opacity="1" fill-rule="evenodd" stroke="none" /><path d="L7.15 31.95" fill="#999999" fill-opacity="1" fill-rule="evenodd" stroke="none" /><path d="L5.95 32.25" stroke="#000000" stroke-width="4.0" fill="none" stroke-opacity="1" /><path d="M7.15 31.95 L11.2 30.85 L3.25 12.6 L6.05 4.55" stroke="#000000" stroke-width="4.0" fill="none" stroke-opacity="1" /><path d="M16.6 29.4 L16.8 31.6" fill="#ffffff" fill-opacity="1" fill-rule="evenodd" stroke="none" /><path d="L19.4 41.25" fill="#666666" fill-opacity="1" fill-rule="evenodd" stroke="none" /><path d="L14.35 42.6 L11.75 32.95" stroke="#000000" stroke-width="4.0" fill="none" stroke-opacity="1" /><path d="L7.95 34" fill="#999999" fill-opacity="1" fill-rule="evenodd" stroke="none" /><path d="M16.6 29.4 L11.2 30.85 L11.75 32.95" stroke="#000000" stroke-width="4.0" fill="none" stroke-opacity="1" /><path d="L16.8 31.6" fill="#666666" fill-opacity="1" fill-rule="evenodd" stroke="none" /></svg>