<?xml version='1.0' encoding='utf-8'?>
<svg xmlns="http://www.w3.org/2000/svg" width="34.8px" height="32.6px" viewBox="0 -2 34.8 32.6" data-shape-id="2779"><path d="M32.8 21.1 L32.8 20.85 Q32.95 12.65 24.7 11.8 L24.05 11.75 L23.4 11.65 L18.2 11.65 L18.2 1.77636e-15 L3.9 1.77636e-15 L3.9 3.65" stroke="#000000" stroke-width="4.0" fill="none" stroke-opacity="1" /><path d="L14.3 3.65 L14.3 15.3 L21.5 15.3 L22.3 15.4 L22.8 15.3 L25.4 15.9 Q27.7 16.55 28.35 20.6 L28.4 21.1" fill="#b1b1b1" fill-opacity="1" fill-rule="evenodd" stroke="none" /><path d="L32.8 21.1" stroke="#000000" stroke-width="2.0" fill="none" stroke-opacity="1" /><path d="Q32.75 23.65 31.8 26.9 L28.8 26.9" stroke="#000000" stroke-width="4.0" fill="none" stroke-opacity="1" /><path d="L27.9 30.6 L1.06581e-14 30.6 L1.06581e-14 24.75" fill="#666666" fill-opacity="1" fill-rule="evenodd" stroke="none" /><path d="L1.06581e-14 3.65 L3.9 3.65" fill="#b1b1b1" fill-opacity="1" fill-rule="evenodd" stroke="none" /><path d="L3.9 21.1" stroke="#000000" stroke-width="4.0" fill="none" stroke-opacity="1" /><path d="L28.4 21.1" stroke="#000000" stroke-width="2.0" fill="none" stroke-opacity="1" /><path d="L28.9 24.75" fill="none" stroke="none" /><path d="L28.8 26.9" fill="#646464" fill-opacity="1" fill-rule="evenodd" stroke="none" /><path d="L3.9 26.9 L3.9 24.75" stroke="#000000" stroke-width="4.0" fill="none" stroke-opacity="1" /><path d="L9.32587e-15 24.75" fill="#b1b1b1" fill-opacity="1" fill-rule="evenodd" stroke="none" /><path d="M3.9 24.75 L28.9 24.75" fill="#646464" fill-opacity="1" fill-rule="evenodd" stroke="none" /><path d="M3.9 21.1 L3.9 24.75" stroke="#000000" stroke-width="4.0" fill="none" stroke-opacity="1" /></svg>