<?xml version='1.0' encoding='utf-8'?>
<svg xmlns="http://www.w3.org/2000/svg" width="34.1px" height="32.35px" viewBox="-0.2 -2 34.1 32.35" data-shape-id="2781"><path d="M30.7 6.75 L31.9 2.9 Q23.85 3.55 17.1 0.05" stroke="#000000" stroke-width="4.0" fill="none" stroke-opacity="1" /><path d="L16.6 0.1" fill="#ffffff" fill-opacity="1" fill-rule="evenodd" stroke="none" /><path d="Q9.8 3.55 1.8 2.9 L3 6.65" stroke="#000000" stroke-width="4.0" fill="none" stroke-opacity="1" /><path d="Q9.3 6.55 14.8 3.75 L15.05 3.75" fill="#b8b8b8" fill-opacity="1" fill-rule="evenodd" stroke="none" /><path d="L15.1 3.65 L15.3 3.7 Q22.05 7.2 30.1 6.55" fill="#666666" fill-opacity="1" fill-rule="evenodd" stroke="none" /><path d="L30.7 6.75" fill="none" stroke="none" /><path d="Q29 11.3 27 15" stroke="#000000" stroke-width="4.0" fill="none" stroke-opacity="1" /><path d="Q22.4 25 15.3 30.2 L15.15 30.35 L15.05 30.2" fill="#666666" fill-opacity="1" fill-rule="evenodd" stroke="none" /><path d="L14.8 30.2 Q4.9 22.95 -1.77636e-15 6.55 L3 6.65" fill="#b8b8b8" fill-opacity="1" fill-rule="evenodd" stroke="none" /><path d="Q7.45 18.9 15.05 25.4" stroke="#000000" stroke-width="4.0" fill="none" stroke-opacity="1" /><path d="L15.05 3.75" fill="#666666" fill-opacity="1" fill-rule="evenodd" stroke="none" /><path d="M27 15 Q28.7 11.1 30.1 6.55" fill="none" stroke="none" /><path d="M17.1 0.05 L16.9 0 L16.85 0 L16.6 0.1" stroke="#000000" stroke-width="4.0" fill="none" stroke-opacity="1" /><path d="M15.05 25.4 L16.6 26.6 L16.85 26.75 L16.9 26.7 L17 26.7 L17.1 26.6 Q22.9 22.35 27 15" stroke="#000000" stroke-width="4.0" fill="none" stroke-opacity="1" /><path d="M15.05 25.4 L15.05 30.2" fill="#b8b8b8" fill-opacity="1" fill-rule="evenodd" stroke="none" /></svg>