<?xml version='1.0' encoding='utf-8'?>
<svg xmlns="http://www.w3.org/2000/svg" width="35.8px" height="33.35px" viewBox="0 -2 35.8 33.35" data-shape-id="2783"><path d="M26.8 18.05 L24.2 21.4 L24.3 27.4" fill="#b2b2b2" fill-opacity="1" fill-rule="evenodd" stroke="none" /><path d="L28.05 28.7 L27.8 18.8" stroke="#000000" stroke-width="4.0" fill="none" stroke-opacity="1" /><path d="L26.8 18.05" fill="none" stroke="none" /><path d="L30.2 13.55" fill="#b2b2b2" fill-opacity="1" fill-rule="evenodd" stroke="none" /><path d="L20.75 10.65 L9.5 18.75" fill="#ffffff" fill-opacity="1" fill-rule="evenodd" stroke="none" /><path d="L9.3 28.65 L18.55 25.45" stroke="#000000" stroke-width="4.0" fill="none" stroke-opacity="1" /><path d="L18.65 25.4 L24.3 27.4" stroke="#000000" stroke-width="4.0" fill="none" stroke-opacity="1" /><path d="L24.4 31.35 L15 28.05" fill="none" stroke="none" /><path d="L5.65 31.25 L5.85 21.35" fill="#b2b2b2" fill-opacity="1" fill-rule="evenodd" stroke="none" /><path d="L6.21725e-15 13.45 L4.6 12.15" fill="#ffffff" fill-opacity="1" fill-rule="evenodd" stroke="none" /><path d="L3.65 10.85 L10.85 8.7" stroke="#000000" stroke-width="4.0" fill="none" stroke-opacity="1" /><path d="L15.1 2.65 L15.95 3.9" fill="#ffffff" fill-opacity="1" fill-rule="evenodd" stroke="none" /><path d="L18.75 -4.44089e-16 L24.4 8 L33.8 10.9 L31.2 14.35" stroke="#000000" stroke-width="4.0" fill="none" stroke-opacity="1" /><path d="L27.8 18.8" stroke="#000000" stroke-width="4.0" fill="none" stroke-opacity="1" /><path d="M30.2 13.55 L31.2 14.35" fill="#ffffff" fill-opacity="1" fill-rule="evenodd" stroke="none" /><path d="M10.85 8.7 L13.05 8 L15.95 3.9" stroke="#000000" stroke-width="4.0" fill="none" stroke-opacity="1" /><path d="M4.6 12.15 L9.45 10.65 L10.85 8.7" fill="none" stroke="none" /><path d="M5.85 21.35 L9.5 18.75" fill="#b2b2b2" fill-opacity="1" fill-rule="evenodd" stroke="none" /><path d="L4.6 12.15" stroke="#000000" stroke-width="4.0" fill="none" stroke-opacity="1" /><path d="M15 28.05 L18.55 25.45" fill="#838383" fill-opacity="1" fill-rule="evenodd" stroke="none" /></svg>