<?xml version='1.0' encoding='utf-8'?>
<svg xmlns="http://www.w3.org/2000/svg" width="33.5px" height="32.9px" viewBox="-3.6 -2 33.5 32.9" data-shape-id="2785"><path d="M6.95 3 L6.95 0 L20.9 0 L20.9 6.9 L27.9 6.9 L27.9 20.85 L24.3 20.85" stroke="#000000" stroke-width="4.0" fill="none" stroke-opacity="1" /><path d="L24.3 23.85 L20.9 23.85" fill="#bababa" fill-opacity="1" fill-rule="evenodd" stroke="none" /><path d="L20.9 27.9 L17.3 27.9" stroke="#000000" stroke-width="4.0" fill="none" stroke-opacity="1" /><path d="L17.3 30.9 L3.35 30.9 L3.35 23.85 L-3.6 23.85 L-3.6 9.9 L-2.22045e-15 9.9" fill="#666666" fill-opacity="1" fill-rule="evenodd" stroke="none" /><path d="L-2.22045e-15 6.9 L3.35 6.9" stroke="#000000" stroke-width="4.0" fill="none" stroke-opacity="1" /><path d="L3.35 3 L6.95 3" fill="#bababa" fill-opacity="1" fill-rule="evenodd" stroke="none" /><path d="L17.3 3 L17.3 9.9 L24.3 9.9 L24.3 20.85" fill="#666666" fill-opacity="1" fill-rule="evenodd" stroke="none" /><path d="L20.9 20.85 L20.9 23.85" stroke="#000000" stroke-width="4.0" fill="none" stroke-opacity="1" /><path d="L17.3 23.85 L17.3 27.9" fill="#ffffff" fill-opacity="1" fill-rule="evenodd" stroke="none" /><path d="L6.95 27.9 L6.95 20.85 L-2.66454e-15 20.85 L-2.66454e-15 9.9" stroke="#000000" stroke-width="4.0" fill="none" stroke-opacity="1" /><path d="L3.35 9.9 L3.35 6.9" fill="#ffffff" fill-opacity="1" fill-rule="evenodd" stroke="none" /><path d="L6.95 6.9 L6.95 3" stroke="#000000" stroke-width="4.0" fill="none" stroke-opacity="1" /><path d="M0 0" fill="none" stroke="none" /><path d="M6.95 0 L20.9 0 L20.9 6.9 L27.9 6.9 L27.9 20.85 L20.9 20.85 L20.9 27.9 L6.95 27.9 L6.95 20.85 L-8.88178e-16 20.85 L-8.88178e-16 6.9 L6.95 6.9 L6.95 1.77636e-15" stroke="#000000" stroke-width="4.0" fill="none" stroke-opacity="1" /></svg>