<?xml version='1.0' encoding='utf-8'?>
<svg xmlns="http://www.w3.org/2000/svg" width="41.15px" height="41.4px" viewBox="-3 -2 41.15 41.4" data-shape-id="2787"><path d="M26 17.55 L29.4 16.8 L36.15 23.55 L30.4 23.5" stroke="#000000" stroke-width="4.0" fill="none" stroke-opacity="1" /><path d="L33.15 26.25 L23.45 26.15" fill="#7e7e7e" fill-opacity="1" fill-rule="evenodd" stroke="none" /><path d="L22.85 26.75" stroke="#000000" stroke-width="4.0" fill="none" stroke-opacity="1" /><path d="L23 36.7 L19.95 33.65" stroke="#000000" stroke-width="4.0" fill="none" stroke-opacity="1" /><path d="L20 39.4 L13.25 32.65 L15 24.6" fill="#7e7e7e" fill-opacity="1" fill-rule="evenodd" stroke="none" /><path d="L6.2 15.8" fill="#a0a0a0" fill-opacity="1" fill-rule="evenodd" stroke="none" /><path d="L4.7 18.9 L4.1 16.5" stroke="#000000" stroke-width="4.0" fill="none" stroke-opacity="1" /><path d="L1.7 21.6 L-3 2.7 L0.95 3.85" fill="#666666" fill-opacity="1" fill-rule="evenodd" stroke="none" /><path d="L-3.77476e-15 9.76996e-15 L18.35 5.25 L13.7 7.5" stroke="#000000" stroke-width="4.0" fill="none" stroke-opacity="1" /><path d="L15.35 7.95 L12.2 9.5" fill="#6b6b6b" fill-opacity="1" fill-rule="evenodd" stroke="none" /><path d="L21.3 18.6" stroke="#000000" stroke-width="4.0" fill="none" stroke-opacity="1" /><path d="L26 17.55" stroke="#000000" stroke-width="4.0" fill="none" stroke-opacity="1" /><path d="L26.4 19.5" fill="#ffffff" fill-opacity="1" fill-rule="evenodd" stroke="none" /><path d="L30.4 23.5" fill="#666666" fill-opacity="1" fill-rule="evenodd" stroke="none" /><path d="L26.15 23.45" stroke="#000000" stroke-width="4.0" fill="none" stroke-opacity="1" /><path d="L23.45 26.15" stroke="#000000" stroke-width="4.0" fill="none" stroke-opacity="1" /><path d="L23.15 26.15" fill="none" stroke="none" /><path d="L22.7 26.6" fill="#a0a0a0" fill-opacity="1" fill-rule="evenodd" stroke="none" /><path d="L22.85 26.75" stroke="#000000" stroke-width="4.0" fill="none" stroke-opacity="1" /><path d="M23 20.3 L26.4 19.5" fill="#666666" fill-opacity="1" fill-rule="evenodd" stroke="none" /><path d="M21.75 20.55 L23 20.3" fill="#7e7e7e" fill-opacity="1" fill-rule="evenodd" stroke="none" /><path d="L21.3 18.6" stroke="#000000" stroke-width="4.0" fill="none" stroke-opacity="1" /><path d="L21.75 20.55" fill="#ffffff" fill-opacity="1" fill-rule="evenodd" stroke="none" /><path d="L18.3 21.3" fill="#7e7e7e" fill-opacity="1" fill-rule="evenodd" stroke="none" /><path d="L23.15 26.15" fill="#a0a0a0" fill-opacity="1" fill-rule="evenodd" stroke="none" /><path d="M26.15 23.45 L23 20.3" stroke="#000000" stroke-width="4.0" fill="none" stroke-opacity="1" /><path d="M12.2 9.5 L11.3 8.6" stroke="#000000" stroke-width="4.0" fill="none" stroke-opacity="1" /><path d="L8.9 11.05" stroke="#000000" stroke-width="4.0" fill="none" stroke-opacity="1" /><path d="L12.2 9.5" fill="#ffffff" fill-opacity="1" fill-rule="evenodd" stroke="none" /><path d="M13.7 7.5 L11.3 8.6" stroke="#000000" stroke-width="4.0" fill="none" stroke-opacity="1" /><path d="M8.45 11.45 L8 11.9 L18 21.9" stroke="#000000" stroke-width="4.0" fill="none" stroke-opacity="1" /><path d="L22.7 26.6" stroke="#000000" stroke-width="4.0" fill="none" stroke-opacity="1" /><path d="L19.85 29.45" fill="#ffffff" fill-opacity="1" fill-rule="evenodd" stroke="none" /><path d="L19.95 33.65" fill="#7e7e7e" fill-opacity="1" fill-rule="evenodd" stroke="none" /><path d="L16.25 29.95 L17 26.6" stroke="#000000" stroke-width="4.0" fill="none" stroke-opacity="1" /><path d="L15 24.6" fill="#a0a0a0" fill-opacity="1" fill-rule="evenodd" stroke="none" /><path d="M8.9 11.05 L8.45 11.45" stroke="#000000" stroke-width="4.0" fill="none" stroke-opacity="1" /><path d="L18.3 21.3" fill="#a0a0a0" fill-opacity="1" fill-rule="evenodd" stroke="none" /><path d="M8.45 11.45 L8.3 11.3" fill="none" stroke="none" /><path d="L5 14.6" fill="#666666" fill-opacity="1" fill-rule="evenodd" stroke="none" /><path d="L6.2 15.8" fill="none" stroke="none" /><path d="L8 11.9" stroke="#000000" stroke-width="4.0" fill="none" stroke-opacity="1" /><path d="M8.9 11.05 L8.3 11.3 M5 14.6 L4.1 16.5" fill="#666666" fill-opacity="1" fill-rule="evenodd" stroke="none" /><path d="L0.95 3.85" stroke="#000000" stroke-width="4.0" fill="none" stroke-opacity="1" /><path d="L13.7 7.5" fill="#ffffff" fill-opacity="1" fill-rule="evenodd" stroke="none" /><path d="M19.85 29.45 L17 26.6" fill="#7e7e7e" fill-opacity="1" fill-rule="evenodd" stroke="none" /><path d="L18 21.9" stroke="#000000" stroke-width="4.0" fill="none" stroke-opacity="1" /><path d="M0 0" fill="none" stroke="none" /><path d="M26.15 23.45 L21.3 18.6 L11.3 8.6 L8 11.9 L18 21.9 L22.85 26.75 L26.15 23.45 L36.15 23.55 L29.4 16.8 L21.3 18.6 M8 11.9 L4.7 18.9 L0 0 L18.35 5.25 L11.3 8.6 M18 21.9 L16.25 29.95 L23 36.7 L22.85 26.75" stroke="#000000" stroke-width="4.0" fill="none" stroke-opacity="1" /></svg>