<?xml version='1.0' encoding='utf-8'?>
<svg xmlns="http://www.w3.org/2000/svg" width="32.2px" height="33.7px" viewBox="-3 -2 32.2 33.7" data-shape-id="2789"><path d="M24.15 18.75 L24.2 18.75 L22.75 20.15" fill="#565656" fill-opacity="1" fill-rule="evenodd" stroke="none" /><path d="L14.1 28.75" stroke="#000000" stroke-width="4.0" fill="none" stroke-opacity="1" /><path d="L11.05 31.7 L10.15 31.7 L-3 18.75 L3.05 18.75" fill="#666666" fill-opacity="1" fill-rule="evenodd" stroke="none" /><path d="L0 15.75 L3.6 15.75" stroke="#000000" stroke-width="4.0" fill="none" stroke-opacity="1" /><path d="L3.6 13.3 L6.6 13.3" fill="#565656" fill-opacity="1" fill-rule="evenodd" stroke="none" /><path d="L6.6 10.3 L13.15 10.3" stroke="#000000" stroke-width="4.0" fill="none" stroke-opacity="1" /><path d="L14.05 10.3" fill="#ffffff" fill-opacity="1" fill-rule="evenodd" stroke="none" /><path d="L20.6 10.3 L20.6 15.75 L27.2 15.75 L24.15 18.75" stroke="#000000" stroke-width="4.0" fill="none" stroke-opacity="1" /><path d="L22.75 20.15" stroke="#000000" stroke-width="4.0" fill="none" stroke-opacity="1" /><path d="M17.6 5.7 L20.6 5.7 L20.6 0 L14.05 0" stroke="#000000" stroke-width="4.0" fill="none" stroke-opacity="1" /><path d="L13.15 0" fill="none" stroke="none" /><path d="L6.6 0 L6.6 3" stroke="#000000" stroke-width="4.0" fill="none" stroke-opacity="1" /><path d="L17.6 3 L17.6 5.7" fill="#666666" fill-opacity="1" fill-rule="evenodd" stroke="none" /><path d="L17.6 8.7 L3.6 8.7 L3.6 3 L6.6 3" fill="none" stroke="none" /><path d="L6.6 5.7 L13.15 5.7 M14.05 5.7 L17.6 5.7" stroke="#000000" stroke-width="4.0" fill="none" stroke-opacity="1" /><path d="M3.6 15.75 L6.6 15.75 L6.6 13.3" stroke="#000000" stroke-width="4.0" fill="none" stroke-opacity="1" /><path d="L17.6 13.3 L17.6 18.75 L24.15 18.75" fill="#ffffff" fill-opacity="1" fill-rule="evenodd" stroke="none" /><path d="M3.05 18.75 L3.6 18.75 L3.6 15.75" fill="none" stroke="none" /><path d="M13.15 28.7 L3.05 18.75" stroke="#000000" stroke-width="4.0" fill="none" stroke-opacity="1" /><path d="M0 0" fill="none" stroke="none" /><path d="M14.05 5.7 L20.6 5.7 L20.6 0 L14.05 0 M14.05 28.7 L27.2 15.75 L20.6 15.75 L20.6 10.3 L14.05 10.3 M13.15 28.7 L0 15.75 L6.6 15.75 L6.6 10.3 L13.15 10.3 M13.15 5.7 L6.6 5.7 L6.6 0 L13.15 0" stroke="#000000" stroke-width="4.0" fill="none" stroke-opacity="1" /></svg>