<?xml version='1.0' encoding='utf-8'?>
<svg xmlns="http://www.w3.org/2000/svg" width="32.2px" height="33.7px" viewBox="-3 -2 32.2 33.7" data-shape-id="2791"><path d="M20.6 15.95 L24.2 15.95 L21.15 12.95" fill="#c5c5c5" fill-opacity="1" fill-rule="evenodd" stroke="none" /><path d="L20.6 12.95 L20.6 15.95" stroke="#000000" stroke-width="4.0" fill="none" stroke-opacity="1" /><path d="L20.6 18.4 L17.6 18.4" stroke="#000000" stroke-width="4.0" fill="none" stroke-opacity="1" /><path d="L17.6 21.4 L3.6 21.4 L3.6 15.95 L-3 15.95 L0.05 12.95" fill="#c5c5c5" fill-opacity="1" fill-rule="evenodd" stroke="none" /><path d="L1.59595e-15 12.95 L10.15 3" stroke="#000000" stroke-width="4.0" fill="none" stroke-opacity="1" /><path d="L13.15 0" stroke="#000000" stroke-width="4.0" fill="none" stroke-opacity="1" /><path d="L14.05 0" fill="#ffffff" fill-opacity="1" fill-rule="evenodd" stroke="none" /><path d="L27.2 12.95 L21.15 12.95" stroke="#000000" stroke-width="4.0" fill="none" stroke-opacity="1" /><path d="L11.05 3 L10.15 3" fill="#c5c5c5" fill-opacity="1" fill-rule="evenodd" stroke="none" /><path d="L0.05 12.95" fill="none" stroke="none" /><path d="L6.6 12.95 L6.6 18.4 L13.15 18.4" stroke="#000000" stroke-width="4.0" fill="none" stroke-opacity="1" /><path d="M13.15 23 L14.05 23" fill="#ffffff" fill-opacity="1" fill-rule="evenodd" stroke="none" /><path d="L20.6 23 L20.6 28.7 L17.6 28.7" stroke="#000000" stroke-width="4.0" fill="none" stroke-opacity="1" /><path d="L17.6 31.7 L3.6 31.7 L3.6 26 L6.6 26" fill="#c5c5c5" fill-opacity="1" fill-rule="evenodd" stroke="none" /><path d="L6.6 23 L13.15 23" stroke="#000000" stroke-width="4.0" fill="none" stroke-opacity="1" /><path d="M17.6 18.4 L14.05 18.4" stroke="#000000" stroke-width="4.0" fill="none" stroke-opacity="1" /><path d="M17.6 18.4 L17.6 15.95 L20.6 15.95" fill="none" stroke="none" /><path d="M17.6 28.7 L17.6 26 L6.6 26" fill="#ffffff" fill-opacity="1" fill-rule="evenodd" stroke="none" /><path d="L6.6 28.7 L13.15 28.7 M17.6 28.7 L14.05 28.7" stroke="#000000" stroke-width="4.0" fill="none" stroke-opacity="1" /><path d="M0 0" fill="none" stroke="none" /><path d="M14.05 0 L27.2 12.95 L20.6 12.95 L20.6 18.4 L14.05 18.4 M13.15 0 L0 12.95 L6.6 12.95 L6.6 18.4 L13.15 18.4 M13.15 23 L6.6 23 L6.6 28.7 L13.15 28.7 M14.05 23 L20.6 23 L20.6 28.7 L14.05 28.7" stroke="#000000" stroke-width="4.0" fill="none" stroke-opacity="1" /></svg>