<?xml version='1.0' encoding='utf-8'?>
<svg xmlns="http://www.w3.org/2000/svg" width="31.5px" height="36.15px" viewBox="-3.6 -2 31.5 36.15" data-shape-id="2793"><path d="M3.95 4.35 Q7.7 0 12.95 0 Q18.3 0 22.1 4.55 Q25.9 9.1 25.9 15.6 Q25.9 22.05 22.1 26.6" stroke="#000000" stroke-width="4.0" fill="none" stroke-opacity="1" /><path d="Q20.4 28.65 18.35 29.8" stroke="#000000" stroke-width="4.0" fill="none" stroke-opacity="1" /><path d="Q14.6 34.15 9.35 34.15 Q4 34.15 0.2 29.6 L-1.2 27.6" fill="#767676" fill-opacity="1" fill-rule="evenodd" stroke="none" /><path d="Q-3.6 23.7 -3.6 18.6 L-3.45 16.25" fill="#666666" fill-opacity="1" fill-rule="evenodd" stroke="none" /><path d="Q-2.9 11.25 0.2 7.55 Q1.9 5.5 3.95 4.35" fill="#767676" fill-opacity="1" fill-rule="evenodd" stroke="none" /><path d="Q6.4 3 9.35 3 Q14.7 3 18.5 7.55 Q22.3 12.1 22.3 18.6 Q22.3 22.7 20.8 26" fill="#ffffff" fill-opacity="1" fill-rule="evenodd" stroke="none" /><path d="L22.1 26.6" fill="none" stroke="none" /><path d="M18.5 11 Q18.5 13.4 16.75 15.1 Q15.05 16.85 12.65 16.85 Q10.25 16.85 8.5 15.1 Q6.8 13.4 6.8 11 Q6.8 8.6 8.5 6.85 Q10.25 5.15 12.65 5.15 Q15.05 5.15 16.75 6.85 Q18.5 8.6 18.5 11" fill="#666666" fill-opacity="1" fill-rule="evenodd" stroke="none" /><path d="M0.1 17.3 L0 15.6 Q0 9.1 3.8 4.55 L3.95 4.35" stroke="#000000" stroke-width="4.0" fill="none" stroke-opacity="1" /><path d="M0.1 17.3 L0.85 17.95 Q2.6 19.7 2.6 22.1 Q2.6 23.25 2.2 24.3" fill="#565656" fill-opacity="1" fill-rule="evenodd" stroke="none" /><path d="L3.8 26.6 Q7.6 31.15 12.95 31.15 Q15.9 31.15 18.35 29.8" stroke="#000000" stroke-width="4.0" fill="none" stroke-opacity="1" /><path d="L18.5 29.6 Q19.9 27.95 20.8 26" fill="none" stroke="none" /><path d="M2.2 24.3 Q0.4 21.15 0.1 17.3" stroke="#000000" stroke-width="4.0" fill="none" stroke-opacity="1" /><path d="Q-1.4 16.25 -3.25 16.25 L-3.45 16.25" fill="#767676" fill-opacity="1" fill-rule="evenodd" stroke="none" /><path d="M16.55 26.55 Q16.55 28.15 15.4 29.3 Q14.25 30.45 12.65 30.45 Q11.05 30.45 9.9 29.3 Q8.75 28.15 8.75 26.55 Q8.75 24.95 9.9 23.8 Q11.05 22.65 12.65 22.65 Q14.25 22.65 15.4 23.8 Q16.55 24.95 16.55 26.55 M2.2 24.3 L0.85 26.2 L-1.2 27.6" fill="#666666" fill-opacity="1" fill-rule="evenodd" stroke="none" /><path d="M0 0" fill="none" stroke="none" /><path d="M25.9 15.6 Q25.9 22.05 22.1 26.6 Q18.3 31.15 12.95 31.15 Q7.6 31.15 3.8 26.6 Q-1.77636e-15 22.05 -1.77636e-15 15.6 Q-1.77636e-15 9.1 3.8 4.55 Q7.6 1.77636e-15 12.95 1.77636e-15 Q18.3 1.77636e-15 22.1 4.55 Q25.9 9.1 25.9 15.6" stroke="#000000" stroke-width="4.0" fill="none" stroke-opacity="1" /></svg>