<?xml version='1.0' encoding='utf-8'?>
<svg xmlns="http://www.w3.org/2000/svg" width="38.4px" height="37.6px" viewBox="-3 -2 38.4 37.6" data-shape-id="2795"><path d="M11.3 3 L13.45 10.5 L19.1 14.6" fill="#666666" fill-opacity="1" fill-rule="evenodd" stroke="none" /><path d="L22.8 12.1 L16.45 7.5 L14.3 0 L10.9 2.5" stroke="#000000" stroke-width="4.0" fill="none" stroke-opacity="1" /><path d="L11.3 3" fill="none" stroke="none" /><path d="L8.45 5.1" fill="#666666" fill-opacity="1" fill-rule="evenodd" stroke="none" /><path d="L5.05 7.55 L1.3 7.45" fill="#ffffff" fill-opacity="1" fill-rule="evenodd" stroke="none" /><path d="L2.65 11.7 L2.66454e-15 18.95 L7.75 19.05 L12.25 22.6" stroke="#000000" stroke-width="4.0" fill="none" stroke-opacity="1" /><path d="L12.5 21.75" fill="none" stroke="none" /><path d="L13.25 19.55 L13.2 19.45 L14.85 18.45" fill="#838383" fill-opacity="1" fill-rule="evenodd" stroke="none" /><path d="L15.85 17.8" fill="none" stroke="none" /><path d="L16.25 16.55 L16.2 16.45 L17.85 15.45 L19.1 14.6" stroke="#000000" stroke-width="4.0" fill="none" stroke-opacity="1" /><path d="L19.8 15.1 L18.55 16" fill="none" stroke="none" /><path d="L33.4 27.2 L30.85 30.55" stroke="#000000" stroke-width="4.0" fill="none" stroke-opacity="1" /><path d="L29.3 32.6 L28.9 32.2" stroke="#000000" stroke-width="4.0" fill="none" stroke-opacity="1" /><path d="L26.3 35.6 L14.05 23.3" fill="#838383" fill-opacity="1" fill-rule="evenodd" stroke="none" /><path d="L13.85 23.85 L12.25 22.6" stroke="#000000" stroke-width="4.0" fill="none" stroke-opacity="1" /><path d="L10.85 26.85 L4.75 22.05 L-3 21.95 L-0.35 14.7 L-2.7 7.3 L1.3 7.45" fill="#666666" fill-opacity="1" fill-rule="evenodd" stroke="none" /><path d="L0.3 4.3 L8.05 4.55" stroke="#000000" stroke-width="4.0" fill="none" stroke-opacity="1" /><path d="L10.9 2.5" stroke="#000000" stroke-width="4.0" fill="none" stroke-opacity="1" /><path d="M8.05 4.55 L8.45 5.1" fill="#ffffff" fill-opacity="1" fill-rule="evenodd" stroke="none" /><path d="M18.55 16 L17.85 15.45" stroke="#000000" stroke-width="4.0" fill="none" stroke-opacity="1" /><path d="M18.55 16 L15.85 17.8" fill="#ffffff" fill-opacity="1" fill-rule="evenodd" stroke="none" /><path d="L15.5 18.75 L16.25 19.5" stroke="#000000" stroke-width="4.0" fill="none" stroke-opacity="1" /><path d="L30.4 30.2" fill="#838383" fill-opacity="1" fill-rule="evenodd" stroke="none" /><path d="L30.85 30.55" fill="none" stroke="none" /><path d="M12.5 21.75 L14.05 23.3" fill="#838383" fill-opacity="1" fill-rule="evenodd" stroke="none" /><path d="L15.45 18.9" stroke="#000000" stroke-width="4.0" fill="none" stroke-opacity="1" /><path d="L14.85 18.45 M16.25 19.5 L15.45 18.9" fill="none" stroke="none" /><path d="L15.5 18.75" stroke="#000000" stroke-width="4.0" fill="none" stroke-opacity="1" /><path d="M28.9 32.2 L30.4 30.2" fill="#838383" fill-opacity="1" fill-rule="evenodd" stroke="none" /><path d="M16.25 19.5 L28.9 32.2" stroke="#000000" stroke-width="4.0" fill="none" stroke-opacity="1" /><path d="M0 0" fill="none" stroke="none" /><path d="M15.5 18.75 L13.85 23.85 L7.75 19.05 L0 18.95 L2.65 11.7 L0.3 4.3 L8.05 4.55 L14.3 -8.88178e-16 L16.45 7.5 L22.8 12.1 L17.85 15.45 L33.4 27.2 L29.3 32.6 L15.5 18.75 L16.25 16.55 L16.2 16.45 L17.85 15.45" stroke="#000000" stroke-width="4.0" fill="none" stroke-opacity="1" /></svg>