<?xml version='1.0' encoding='utf-8'?>
<svg xmlns="http://www.w3.org/2000/svg" width="25.7px" height="37.5px" viewBox="-2.7 -2 25.7 37.5" data-shape-id="2797"><path d="M11.1 13.75 L13.8 10.5 L11.05 7.45 L4.45 14.1 L0.5 10.4" stroke="#000000" stroke-width="4.0" fill="none" stroke-opacity="1" /><path d="L-2.7 13.25 L1.75 17.4 L8.35 10.75 L11.1 13.75 L11.1 13.8 L8.3 17.15" fill="none" stroke="none" /><path d="L8.3 23.75 L11.1 23.75" stroke="#000000" stroke-width="4.0" fill="none" stroke-opacity="1" /><path d="L11.1 22.35 L18.3 12.15" fill="none" stroke="none" /><path d="L8.45 3.3" fill="#ffffff" fill-opacity="1" fill-rule="evenodd" stroke="none" /><path d="L0.5 10.4" fill="none" stroke="none" /><path d="L8.88178e-16 9.95 L8 2.8" stroke="#000000" stroke-width="4.0" fill="none" stroke-opacity="1" /><path d="L11.15 2.66454e-15 L21 8.85 L18.55 12.35" stroke="#000000" stroke-width="4.0" fill="none" stroke-opacity="1" /><path d="L13.8 19.05 L13.8 23.75 L11.1 23.75" stroke="#000000" stroke-width="4.0" fill="none" stroke-opacity="1" /><path d="L11.1 27.05 L5.6 27.05 L5.6 20.35 L8.3 17.15" fill="#666666" fill-opacity="1" fill-rule="evenodd" stroke="none" /><path d="L8.3 17.05 L11.1 13.75" stroke="#000000" stroke-width="4.0" fill="none" stroke-opacity="1" /><path d="M18.3 12.15 L18.55 12.35" fill="#ffffff" fill-opacity="1" fill-rule="evenodd" stroke="none" /><path d="M8.45 3.3 L8 2.8" fill="#ffffff" fill-opacity="1" fill-rule="evenodd" stroke="none" /><path d="M11.1 32.2 L11.1 35.5 L5.6 35.5 L5.6 31.15 L8.3 31.15" fill="#666666" fill-opacity="1" fill-rule="evenodd" stroke="none" /><path d="L8.3 27.85 L13.8 27.85 L13.8 32.2 L11.1 32.2" stroke="#000000" stroke-width="4.0" fill="none" stroke-opacity="1" /><path d="L11.1 31.15 L8.3 31.15" fill="#565656" fill-opacity="1" fill-rule="evenodd" stroke="none" /><path d="L8.3 32.2 L11.1 32.2" stroke="#000000" stroke-width="4.0" fill="none" stroke-opacity="1" /><path d="M0 0" fill="none" stroke="none" /><path d="M0 9.95 L11.15 0 L21 8.85 L13.8 19.05 L13.8 23.75 L8.3 23.75 L8.3 17.05 L13.8 10.5 L11.05 7.45 L4.45 14.1 L8.88178e-16 9.95 M13.8 32.2 L8.3 32.2 L8.3 27.85 L13.8 27.85 L13.8 32.2" stroke="#000000" stroke-width="4.0" fill="none" stroke-opacity="1" /></svg>