<?xml version='1.0' encoding='utf-8'?>
<svg xmlns="http://www.w3.org/2000/svg" width="37.75px" height="35.1px" viewBox="-4.3 9.1 37.75 35.1" data-shape-id="2799"><path d="M14.4 27.1 Q15.6 26.35 17.05 25.95 Q20.75 24.95 24.1 26.9 Q25.95 28 27.1 29.65 Q27.95 30.9 28.4 32.5 Q29.4 36.25 27.5 39.55 L27.25 40" fill="#666666" fill-opacity="1" fill-rule="evenodd" stroke="none" /><path d="Q29.05 38.85 30.2 36.85 Q32.1 33.55 31.1 29.8 L30.45 28 L29.8 26.95 Q15.25 1.4 1.65 17.05" fill="none" stroke="none" /><path d="Q11.95 8.3 22.8 22.95 L19.75 23.25 Q16.35 24.15 14.4 27.1" fill="#d3d3d3" fill-opacity="1" fill-rule="evenodd" stroke="none" /><path d="L12.85 28.4 Q12.05 29.2 11.4 30.3 Q10.4 32.05 10.2 34" fill="#666666" fill-opacity="1" fill-rule="evenodd" stroke="none" /><path d="L10.2 35.15" fill="none" stroke="none" /><path d="L10.2 35.6" fill="#d3d3d3" fill-opacity="1" fill-rule="evenodd" stroke="none" /><path d="L10.5 37.3 Q11.5 41.05 14.8 42.95 Q18.15 44.85 21.85 43.85 Q25.3 42.9 27.25 40" fill="none" stroke="none" /><path d="M10.2 35.15 L10.15 35.6 L10.2 35.6 M1.65 17.05 Q-0.8 19.1 -3.2 22.5 Q-2.55 22.7 -2.05 23.3 Q10.45 16.4 10.2 34" fill="#d3d3d3" fill-opacity="1" fill-rule="evenodd" stroke="none" /><path d="M0 0" fill="none" stroke="none" /><path d="M12.9 31.25 Q13.1 29.35 14.1 27.6 L14.4 27.1 Q16.35 24.15 19.75 23.25 L22.8 22.95 Q24.85 23.05 26.8 24.2 Q28.65 25.3 29.8 26.95 Q15.25 1.4 1.65 17.05 Q-0.35 19.3 -2.3 22.45 Q11.95 12.6 12.85 28.4 L12.9 31.25 L12.9 32.55 L12.9 32.9 L13.2 34.6 Q14.2 38.35 17.5 40.25 Q20.85 42.15 24.55 41.15 Q26.05 40.75 27.25 40 Q29.05 38.85 30.2 36.85 Q32.1 33.55 31.1 29.8 L30.45 28 L29.8 26.95" fill="none" stroke="none" /></svg>