<?xml version='1.0' encoding='utf-8'?>
<svg xmlns="http://www.w3.org/2000/svg" width="11.05px" height="10.25px" viewBox="0 0 11.05 10.25" data-shape-id="2802"><path d="M10.8 3.5 L11.05 5.1 L10.9 6.25 Q10.5 8.1 8.95 9.2 L7.5 9.9 Q4.75 10.8 2.3 9.3 Q-0.05 7.85 -1.15186e-15 5.55 Q-1.15186e-15 4.75 0.35 3.8 Q0.9 2.5 1.5 1.85 Q2.75 0.35 4.65 0.05 Q7.45 -0.35 9.6 1.75 Q10.5 2.5 10.8 3.5" fill="#c8c38d" fill-rule="evenodd" stroke="none" /><path d="M0 0" fill="none" stroke="none" /><path d="M5.35 5.45 L6.35 8 L6.55 8.45 L6.65 9.1 L6.4 9.85 Q6.1 10.25 5.5 10.25 Q4.95 10.15 4.7 9.75 L4.45 9 L4.25 8.7 L4.1 8.2 L3.75 7.45 L2.8 5.25 Q2.6 4.6 2.7 4.25 Q2.8 3.75 3.35 3.55 L4.4 3.6 L5.45 3.7 L5 2.35 Q4.7 1.6 4.95 0.75 L5.15 0.4 L6.05 0.45 L6.55 1.1 L7.3 2.75 L7.45 3.4 L7.65 3.7 L7.7 4.1 L7.85 4.65 Q7.95 5.35 6.95 5.6 L5.35 5.45" fill="#c8c38d" fill-rule="evenodd" stroke="none" /></svg>