<?xml version='1.0' encoding='utf-8'?>
<svg xmlns="http://www.w3.org/2000/svg" width="11.05px" height="10.25px" viewBox="0 0 11.05 10.25" data-shape-id="2803"><path d="M10.8 3.5 L11.05 5.1 L10.9 6.25 Q10.5 8.1 8.95 9.2 L7.5 9.9 Q4.75 10.8 2.3 9.3 Q-0.05 7.85 -1.15186e-15 5.55 Q-1.15186e-15 4.75 0.35 3.8 Q0.9 2.5 1.5 1.85 Q2.75 0.35 4.65 0.05 Q7.45 -0.35 9.6 1.75 Q10.5 2.5 10.8 3.5" fill="#cb9797" fill-rule="evenodd" stroke="none" /><path d="M0 0" fill="none" stroke="none" /><path d="M6.15 1.6 L5.55 1.75 L4.35 2.65 Q5 2.85 5.1 3.55 Q5.2 4.35 4.6 4.75 L5.1 5.35 L5.35 5.25 L5.65 4.9 Q5.95 4.4 6.6 4.15 Q7.2 3.95 7.8 4.15 Q8.9 4.55 9.2 5.7 Q9.45 6.8 8.9 7.8 Q8.4 8.8 7.35 9.35 Q6.3 9.9 5.2 9.7 Q3.95 9.55 3.3 8.65 L2.95 8.1 Q2.25 7.85 1.8 7.15 Q1.3 6.35 1.45 5.55 L1.85 3.8 L1.9 3.75 L1.9 3.6 Q2 2.85 3 1.85 Q3.75 1.1 4.6 0.75 Q5.55 0.35 6.5 0.75 L7.05 1.15 Q7.15 1.65 6.8 1.7 L6.5 1.7 L6.15 1.6" fill="#cb9797" fill-rule="evenodd" stroke="none" /></svg>