<?xml version='1.0' encoding='utf-8'?>
<svg xmlns="http://www.w3.org/2000/svg" width="11.05px" height="10.25px" viewBox="0 0 11.05 10.25" data-shape-id="2804"><path d="M10.8 3.5 L11.05 5.1 L10.9 6.25 Q10.5 8.1 8.95 9.2 L7.5 9.9 Q4.75 10.8 2.3 9.3 Q-0.05 7.85 -1.15186e-15 5.55 Q-1.15186e-15 4.75 0.35 3.8 Q0.9 2.5 1.5 1.85 Q2.75 0.35 4.65 0.05 Q7.45 -0.35 9.6 1.75 Q10.5 2.5 10.8 3.5" fill="#8aa5c6" fill-rule="evenodd" stroke="none" /><path d="M0 0" fill="none" stroke="none" /><path d="M3.05 4.75 L3.3 4 Q3.75 2.7 4.6 1.9 L5.25 1.1 Q5.5 0.85 6 0.65 L6.5 0.55 Q6.8 0.65 6.85 1.1 L7 1.8 L7 2.55 L7.1 4.05 L7.35 4.7 L7.65 5.65 L7.9 6.2 L8 6.75 Q8.05 8.1 7.35 8.8 L6.8 9.15 L6 9.5 Q5.2 9.7 4.2 9.1 L3.35 8.4 L2.95 7.5 L2.85 6.25 L2.9 5.3 L3.05 4.75" fill="#8aa5c6" fill-rule="evenodd" stroke="none" /></svg>