<?xml version='1.0' encoding='utf-8'?>
<svg xmlns="http://www.w3.org/2000/svg" width="11.05px" height="11.75px" viewBox="0 -1.5 11.05 11.75" data-shape-id="2805"><path d="M10.8 3.5 L11.05 5.1 L10.9 6.25 Q10.5 8.1 8.95 9.2 L7.5 9.9 Q4.75 10.8 2.3 9.3 Q-0.05 7.85 -1.15186e-15 5.55 Q-1.15186e-15 4.75 0.35 3.8 Q0.9 2.5 1.5 1.85 Q2.75 0.35 4.65 0.05 Q7.45 -0.35 9.6 1.75 Q10.5 2.5 10.8 3.5" fill="#89b185" fill-rule="evenodd" stroke="none" /><path d="M0 0" fill="none" stroke="none" /><path d="M5.4 1.05 L6.55 1.45 L7.05 0.75 L7.1 0.05 L7.15 -0.7 Q7.25 -1.25 7.85 -1.45 L8.85 -1.25 L9.4 -0.25 Q9.9 1.7 8.95 3.35 L8.8 3.65 Q10 5.7 9.5 7.15 Q9.2 8.1 8.4 8.2 Q7.95 8.25 7.45 7.9 L7.3 8.2 L6.5 9.25 L5.2 9.35 L4.7 8.6 Q3.85 9.15 3.3 9.2 Q2.3 9.3 1.85 8.6 Q1.5 7.95 1.85 7.15 L2.45 6.4 L1.75 5.9 Q1.3 5.55 1.3 5.1 Q1.35 4.6 2.05 4.1 L2.75 3.65 L2.35 3.2 Q2.1 2.8 2.2 2.35 Q2.3 1.85 2.65 1.6 Q2.9 1.35 3.85 1.15 L5.4 1.05" fill="#89b185" fill-rule="evenodd" stroke="none" /></svg>