<?xml version='1.0' encoding='utf-8'?>
<svg xmlns="http://www.w3.org/2000/svg" width="11.05px" height="10.25px" viewBox="0 0 11.05 10.25" data-shape-id="2806"><path d="M10.8 3.5 L11.05 5.1 L10.9 6.25 Q10.5 8.1 8.95 9.2 L7.5 9.9 Q4.75 10.8 2.3 9.3 Q-0.05 7.85 -1.15186e-15 5.55 Q-1.15186e-15 4.75 0.35 3.8 Q0.9 2.5 1.5 1.85 Q2.75 0.35 4.65 0.05 Q7.45 -0.35 9.6 1.75 Q10.5 2.5 10.8 3.5" fill="#a3dad6" fill-rule="evenodd" stroke="none" /><path d="M0 0" fill="none" stroke="none" /><path d="M5.75 9.65 L5.65 9.65 L5.55 9.65 L5.55 9.6 L5.4 9.55 L5.2 9.45 L5.1 9.35 L5 9.25 L4.9 9.15 L4.85 9.05 L4.85 8.95 L4.8 8.85 L4.8 8.75 L4.75 8.65 L4.8 8.55 L4.75 8.45 L4.75 8.35 L4.75 8.25 L4.75 8.15 L4.75 8.05 L4.75 7.95 L4.75 7.85 L4.75 7.75 L4.75 7.65 L4.75 7.55 L4.75 7.5 L4.7 7.55 L3.9 8.2 L2.95 8.05 Q2.65 7.55 3.3 6.7 L3.7 6.2 L3.3 6.2 L2.2 6.25 L1.8 6.15 L1.6 6.05 L1.45 5.95 L1.35 5.85 L1.25 5.75 L1.2 5.65 L1.15 5.55 L1.1 5.45 L1.05 5.45 L1.05 5.35 L1.05 5.25 L1.05 5.15 L1.05 5.05 L1.05 4.95 L1.1 4.95 L1.15 4.85 L1.2 4.75 L1.25 4.65 L1.35 4.55 L1.45 4.45 L1.6 4.35 L1.8 4.25 L2.2 4.15 L3.3 4.2 L3.7 4.2 L3.3 3.7 Q2.65 2.85 2.95 2.35 L3.9 2.2 Q4.25 2.3 4.7 2.85 L4.75 2.9 L4.75 2.85 L4.75 2.75 L4.75 2.65 L4.75 2.55 L4.75 2.45 L4.75 2.35 L4.75 2.25 L4.75 2.15 L4.75 2.05 L4.75 1.95 L4.8 1.85 L4.75 1.75 L4.8 1.65 L4.8 1.55 L4.85 1.45 L4.85 1.35 L4.9 1.25 L5 1.15 L5.1 1.05 L5.2 0.95 L5.4 0.85 L5.55 0.8 L5.55 0.75 L5.65 0.8 L5.75 0.75 L5.75 0.8 L5.9 0.85 L6.1 0.95 L6.2 1.05 L6.3 1.15 L6.4 1.25 L6.45 1.35 L6.45 1.45 L6.5 1.55 L6.5 1.65 L6.55 1.75 L6.5 1.85 L6.55 1.95 L6.55 2.05 L6.55 2.15 L6.55 2.25 L6.55 2.35 L6.55 2.45 L6.55 2.55 L6.55 2.65 L6.55 2.75 L6.55 2.85 L6.55 2.9 L6.6 2.85 Q7.05 2.3 7.4 2.2 Q7.95 1.95 8.35 2.35 Q8.65 2.85 8 3.7 L7.6 4.2 L8 4.2 L9.1 4.15 L9.5 4.25 L9.7 4.35 L9.85 4.45 L9.95 4.55 L10.05 4.65 L10.1 4.75 L10.15 4.85 L10.2 4.95 L10.25 4.95 L10.25 5.05 L10.25 5.15 L10.25 5.25 L10.25 5.35 L10.25 5.45 L10.2 5.45 L10.15 5.55 L10.1 5.65 L10.05 5.75 L9.95 5.85 L9.85 5.95 L9.7 6.05 L9.5 6.15 L9.1 6.25 L8 6.2 L7.6 6.2 L8 6.7 Q8.65 7.55 8.35 8.05 L7.4 8.2 L6.6 7.55 L6.55 7.5 L6.55 7.55 L6.55 7.65 L6.55 7.75 L6.55 7.85 L6.55 7.95 L6.55 8.05 L6.55 8.15 L6.55 8.25 L6.55 8.35 L6.55 8.45 L6.5 8.55 L6.55 8.65 L6.5 8.75 L6.5 8.85 L6.45 8.95 L6.45 9.05 L6.4 9.15 L6.3 9.25 L6.2 9.35 L6.1 9.45 L5.9 9.55 L5.75 9.6 L5.75 9.65" fill="#a3dad6" fill-rule="evenodd" stroke="none" /></svg>