<?xml version='1.0' encoding='utf-8'?>
<svg xmlns="http://www.w3.org/2000/svg" width="11.05px" height="10.25px" viewBox="0 0 11.05 10.25" data-shape-id="2807"><path d="M10.8 3.5 L11.05 5.1 L10.9 6.25 Q10.5 8.1 8.95 9.2 L7.5 9.9 Q4.75 10.8 2.3 9.3 Q-0.05 7.85 -1.15186e-15 5.55 Q-1.15186e-15 4.75 0.35 3.8 Q0.9 2.5 1.5 1.85 Q2.75 0.35 4.65 0.05 Q7.45 -0.35 9.6 1.75 Q10.5 2.5 10.8 3.5" fill="#7d6e5c" fill-rule="evenodd" stroke="none" /><path d="M0 0" fill="none" stroke="none" /><path d="M8.15 4.8 L8.9 6.15 L9 6.65 L8.75 7.25 L8.15 7.4 L6 7.7 L5 7.75 L3.25 7.85 L2.4 7.6 Q2.2 7.35 2.45 6.65 L2.85 5.8 L3.85 3 L4.5 1.65 L4.8 1.2 Q5.05 1 5.4 0.9 L5.95 1 L6.35 1.4 L6.4 1.5 L6.9 2.35 L7.9 4.45 L8.15 4.8 M3.9 6.55 L3.95 6.55 L3.9 6.55" fill="#7d6e5c" fill-rule="evenodd" stroke="none" /></svg>