<?xml version='1.0' encoding='utf-8'?>
<svg xmlns="http://www.w3.org/2000/svg" width="11.05px" height="10.25px" viewBox="0 0 11.05 10.25" data-shape-id="2808"><path d="M10.8 3.5 L11.05 5.1 L10.9 6.25 Q10.5 8.1 8.95 9.2 L7.5 9.9 Q4.75 10.8 2.3 9.3 Q-0.05 7.85 -1.15186e-15 5.55 Q-1.15186e-15 4.75 0.35 3.8 Q0.9 2.5 1.5 1.85 Q2.75 0.35 4.65 0.05 Q7.45 -0.35 9.6 1.75 Q10.5 2.5 10.8 3.5" fill="#a2b2b5" fill-rule="evenodd" stroke="none" /><path d="M0 0" fill="none" stroke="none" /><path d="M3.7 1.45 L3.95 1.45 L4.4 1.45 L4.6 1.45 L5.45 1.45 L5.9 1.45 L6.1 1.45 L6.65 1.45 L7.1 1.45 L7.2 1.45 L7.5 1.55 L7.7 1.65 L7.8 1.75 L7.9 1.85 L7.95 1.95 L8 2.05 L8.05 2.15 L8.05 2.25 L8.05 2.35 L8.05 2.45 L8.05 2.55 L8 2.65 L7.95 2.75 L7.9 2.85 L7.8 2.95 L7.7 3.05 L7.5 3.15 L7.2 3.25 L7.1 3.25 L6.65 3.25 L6.1 3.25 L5.9 3.25 L5.55 3.25 L5.45 3.25 L4.6 3.25 L4.4 3.25 L3.95 3.25 L3.7 3.25 L3.4 3.15 L3.2 3.05 L3.1 2.95 L3 2.85 L2.95 2.75 L2.9 2.65 L2.85 2.55 L2.85 2.45 L2.85 2.35 L2.85 2.25 L2.85 2.15 L2.9 2.05 L2.95 1.95 L3 1.85 L3.1 1.75 L3.2 1.65 L3.4 1.55 L3.7 1.5 L3.7 1.45 M2.25 4.05 L5.45 4.1 L5.9 4.1 L7.25 4.1 L8.45 4.15 L8.8 4.2 L9 4.3 L9.1 4.4 L9.25 4.5 L9.25 4.6 L9.35 4.7 L9.35 4.8 L9.4 4.9 L9.45 5 L9.45 5.1 L9.45 5.25 L9.45 5.35 L9.4 5.45 L9.35 5.55 L9.35 5.65 L9.25 5.75 L9.2 5.85 L9.1 5.95 L8.9 6.05 L8.8 6.1 L8.7 6.15 L8.45 6.2 L7.25 6.2 L5.9 6.25 L2.25 6.25 L2 6.2 L1.8 6.15 L1.65 6.05 L1.5 5.95 L1.4 5.85 L1.3 5.75 L1.25 5.65 L1.2 5.55 L1.2 5.45 L1.2 5.35 L1.2 5.25 L1.15 5.1 L1.2 5 L1.2 4.9 L1.2 4.8 L1.25 4.7 L1.3 4.6 L1.4 4.5 L1.45 4.4 L1.55 4.3 L1.75 4.2 L1.85 4.15 L2 4.1 L2.25 4.1 L2.25 4.05 M3.7 7.15 L3.95 7.15 L4.4 7.15 L4.6 7.15 L5.45 7.15 L5.9 7.15 L6.1 7.15 L6.65 7.15 L7.1 7.15 L7.2 7.15 L7.5 7.25 L7.7 7.35 L7.8 7.45 L7.9 7.55 L7.95 7.65 L8 7.75 L8.05 7.85 L8.05 7.95 L8.05 8.05 L8.05 8.15 L8.05 8.25 L8 8.35 L7.95 8.45 L7.9 8.55 L7.8 8.65 L7.7 8.75 L7.5 8.85 L7.2 8.95 L7.1 8.95 L6.65 8.95 L6.1 8.95 L5.9 8.95 L5.55 8.95 L5.45 8.95 L4.6 8.95 L4.4 8.95 L3.95 8.95 L3.7 8.95 L3.4 8.85 L3.2 8.75 L3.1 8.65 L3 8.55 L2.95 8.45 L2.9 8.35 L2.85 8.25 L2.85 8.15 L2.85 8.05 L2.85 7.95 L2.85 7.85 L2.9 7.75 L2.95 7.65 L3 7.55 L3.1 7.45 L3.2 7.35 L3.4 7.25 L3.7 7.2 L3.7 7.15" fill="#a2b2b5" fill-rule="evenodd" stroke="none" /></svg>