<?xml version='1.0' encoding='utf-8'?>
<svg xmlns="http://www.w3.org/2000/svg" width="11.05px" height="10.25px" viewBox="0 0 11.05 10.25" data-shape-id="2809"><path d="M10.8 3.5 L11.05 5.1 L10.9 6.25 Q10.5 8.1 8.95 9.2 L7.5 9.9 Q4.75 10.8 2.3 9.3 Q-0.05 7.85 -1.15186e-15 5.55 Q-1.15186e-15 4.75 0.35 3.8 Q0.9 2.5 1.5 1.85 Q2.75 0.35 4.65 0.05 Q7.45 -0.35 9.6 1.75 Q10.5 2.5 10.8 3.5" fill="#ffffff" fill-rule="evenodd" stroke="none" /><path d="M0 0" fill="none" stroke="none" /><path d="M5.6 0.6 L5.9 0.65 L6.1 0.75 L6.25 0.85 L6.35 0.95 L6.4 1.05 L6.45 1.15 L6.5 1.25 L6.55 1.35 L6.55 1.45 L6.55 1.55 L6.6 1.65 L6.65 1.75 L6.65 1.85 L6.65 1.95 L6.65 2.05 L6.65 2.15 L6.65 2.25 L6.65 2.4 L6.65 2.5 L7.25 2.5 L7.5 2.5 L7.9 2.6 L8.1 2.7 L8.25 2.8 L8.35 2.9 L8.45 3 L8.6 3.1 L8.65 3.2 L8.75 3.3 L8.75 3.4 L8.85 3.5 L8.85 3.6 L8.85 3.7 L8.85 3.8 L8.85 3.9 L8.75 4 L8.75 4.1 L8.65 4.2 L8.6 4.3 L8.45 4.4 L8.35 4.5 L8.25 4.6 L8.1 4.7 L7.9 4.8 L7.5 4.9 L7.25 4.9 L6.65 4.9 L6.65 5.05 L6.65 5.15 L6.65 5.25 L6.65 5.35 L6.65 5.45 L6.65 5.55 L6.65 5.65 L6.65 5.75 L6.65 5.85 L6.65 5.95 L6.65 6.05 L6.65 6.15 L6.65 6.25 L6.65 6.35 L6.65 6.45 L6.65 6.55 L6.65 6.65 L6.65 6.75 L6.65 6.85 L6.65 6.95 L6.65 7.05 L6.65 7.15 L6.65 7.25 L6.65 7.35 L6.65 7.45 L6.65 7.55 L6.65 7.7 L6.65 7.8 L6.65 7.9 L6.65 8 L6.65 8.1 L6.65 8.2 L6.65 8.3 L6.65 8.4 L6.65 8.5 L6.65 8.6 L6.65 8.7 L6.65 8.8 L6.65 8.9 L6.65 9 L6.65 9.1 L6.6 9.2 L6.55 9.3 L6.5 9.4 L6.4 9.5 L6.35 9.6 L6.25 9.7 L6.1 9.8 L5.95 9.9 L5.85 9.9 L5.6 9.95 L5.25 9.9 L5.05 9.8 L4.95 9.7 L4.8 9.6 L4.7 9.5 L4.65 9.35 L4.6 9.25 L4.6 9.15 L4.6 9.05 L4.6 8.95 L4.55 8.85 L4.55 8.75 L4.55 8.65 L4.55 8.55 L4.55 8.45 L4.55 8.35 L4.55 8.25 L4.55 8.15 L4.55 8.05 L4.55 7.95 L4.55 7.85 L4.55 7.75 L4.55 7.65 L4.55 7.55 L4.55 7.45 L4.55 7.35 L4.55 7.25 L4.55 7.15 L4.55 7.05 L4.55 6.95 L4.55 6.85 L4.55 6.7 L4.55 6.6 L4.55 6.5 L4.55 6.4 L4.55 6.3 L4.55 6.2 L4.55 6.1 L4.55 6 L4.55 5.9 L4.55 5.8 L4.55 5.7 L4.55 5.6 L4.55 5.5 L4.55 5.4 L4.55 5.3 L4.55 5.2 L4.55 5.1 L4.55 5 L4.55 4.9 L3.7 4.9 L3.35 4.85 L3.1 4.75 L2.95 4.65 L2.85 4.55 L2.75 4.45 L2.7 4.35 L2.6 4.25 L2.6 4.15 L2.55 4.05 L2.5 3.95 L2.5 3.85 L2.5 3.75 L2.5 3.65 L2.5 3.55 L2.5 3.45 L2.55 3.35 L2.6 3.25 L2.6 3.1 L2.7 3 L2.8 2.9 L2.9 2.8 L3 2.7 L3.15 2.6 L3.35 2.55 L3.45 2.5 L3.7 2.5 L4.6 2.5 L4.55 2.45 L4.55 2.35 L4.55 2.25 L4.5 2.15 L4.55 2.05 L4.55 1.95 L4.55 1.85 L4.6 1.75 L4.6 1.65 L4.6 1.55 L4.65 1.4 L4.65 1.3 L4.7 1.2 L4.7 1.1 L4.8 1 L4.85 0.9 L4.95 0.8 L5.15 0.7 L5.25 0.65 L5.35 0.6 L5.6 0.6" fill="#ffffff" fill-rule="evenodd" stroke="none" /></svg>