<?xml version='1.0' encoding='utf-8'?>
<svg xmlns="http://www.w3.org/2000/svg" width="11.05px" height="10.25px" viewBox="0 0 11.05 10.25" data-shape-id="2810"><path d="M10.8 3.5 L11.05 5.1 L10.9 6.25 Q10.5 8.1 8.95 9.2 L7.5 9.9 Q4.75 10.8 2.3 9.3 Q-0.05 7.85 -1.15186e-15 5.55 Q-1.15186e-15 4.75 0.35 3.8 Q0.9 2.5 1.5 1.85 Q2.75 0.35 4.65 0.05 Q7.45 -0.35 9.6 1.75 Q10.5 2.5 10.8 3.5" fill="#4f4f4f" fill-rule="evenodd" stroke="none" /><path d="M0 0" fill="none" stroke="none" /><path d="M6.55 1.75 L6.25 2.7 L5.6 3.4 Q5.2 4 5.35 4.8 Q5.55 5.55 6.15 5.85 L7.25 6.25 Q7.95 6.45 8.1 6.95 Q8.25 7.7 7.45 8.15 L6.05 8.3 L4.05 8.1 Q2.9 7.85 2.4 7 Q1.9 6.25 2 4.95 Q2.15 3.45 3 2.4 Q3.9 1.25 5.35 1.15 Q6.3 1.05 6.55 1.75" fill="#4f4f4f" fill-rule="evenodd" stroke="none" /></svg>