<?xml version='1.0' encoding='utf-8'?>
<svg xmlns="http://www.w3.org/2000/svg" width="11.05px" height="10.25px" viewBox="0 0 11.05 10.25" data-shape-id="2811"><path d="M10.8 3.5 L11.05 5.1 L10.9 6.25 Q10.5 8.1 8.95 9.2 L7.5 9.9 Q4.75 10.8 2.3 9.3 Q-0.05 7.85 -1.15186e-15 5.55 Q-1.15186e-15 4.75 0.35 3.8 Q0.9 2.5 1.5 1.85 Q2.75 0.35 4.65 0.05 Q7.45 -0.35 9.6 1.75 Q10.5 2.5 10.8 3.5" fill="#b19176" fill-rule="evenodd" stroke="none" /><path d="M0 0" fill="none" stroke="none" /><path d="M8.45 3.7 Q9.35 4.7 9.1 6 Q8.9 7.2 7.8 8.05 Q6.55 8.9 5.3 8.6 Q3.8 8.35 3.35 7 Q2.95 5.85 3.6 4.7 L3.55 3.95 L3.6 3.45 L3.8 3.15 L3.6 3 Q3.3 3.1 3.2 3.7 L2.75 4.35 L2.15 4.2 L1.95 3.55 Q1.85 2.85 2.25 2.3 L2.85 1.7 L3.3 1.45 L4.3 1.5 L4.85 1.75 L5.2 2.3 Q5.95 2.25 6.35 2.75 L6.5 2.9 Q7.65 2.85 8.45 3.7" fill="#b19176" fill-rule="evenodd" stroke="none" /></svg>