<?xml version='1.0' encoding='utf-8'?>
<svg xmlns="http://www.w3.org/2000/svg" width="11.05px" height="10.25px" viewBox="0 0 11.05 10.25" data-shape-id="2812"><path d="M10.8 3.5 L11.05 5.1 L10.9 6.25 Q10.5 8.1 8.95 9.2 L7.5 9.9 Q4.75 10.8 2.3 9.3 Q-0.05 7.85 -1.15186e-15 5.55 Q-1.15186e-15 4.75 0.35 3.8 Q0.9 2.5 1.5 1.85 Q2.75 0.35 4.65 0.05 Q7.45 -0.35 9.6 1.75 Q10.5 2.5 10.8 3.5" fill="#8b76b1" fill-rule="evenodd" stroke="none" /><path d="M0 0" fill="none" stroke="none" /><path d="M3.65 3.45 Q3.4 3.15 3.6 2.7 L4.05 2.1 L4.5 1.15 L5.35 0.45 L5.55 0.4 L5.8 0.45 L6.6 1.15 L7.1 2.1 L7.5 2.7 Q7.7 3.15 7.4 3.45 L6.45 3.65 L6.5 3.85 L6.6 4.6 L6.4 4.9 L4.75 4.9 L4.5 4.6 L4.6 3.85 L4.6 3.65 L3.65 3.45" fill="#8b76b1" fill-rule="evenodd" stroke="none" /><path d="M3.65 6.9 Q3.4 7.2 3.6 7.6 L4.05 8.25 L4.5 9.15 L5.35 9.9 L5.55 9.95 L5.8 9.9 L6.6 9.15 L7.1 8.25 L7.5 7.6 Q7.7 7.2 7.4 6.9 L6.45 6.7 L6.5 6.45 L6.6 5.75 L6.4 5.45 L4.75 5.45 L4.5 5.75 L4.6 6.45 L4.6 6.7 L3.65 6.9" fill="none" stroke="none" /></svg>