<?xml version='1.0' encoding='utf-8'?>
<svg xmlns="http://www.w3.org/2000/svg" width="11.05px" height="10.25px" viewBox="0 0 11.05 10.25" data-shape-id="2813"><path d="M10.8 3.5 L11.05 5.1 L10.9 6.25 Q10.5 8.1 8.95 9.2 L7.5 9.9 Q4.75 10.8 2.3 9.3 Q-0.05 7.85 -1.15186e-15 5.55 Q-1.15186e-15 4.75 0.35 3.8 Q0.9 2.5 1.5 1.85 Q2.75 0.35 4.65 0.05 Q7.45 -0.35 9.6 1.75 Q10.5 2.5 10.8 3.5" fill="#a9a9a9" fill-rule="evenodd" stroke="none" /><path d="M0 0" fill="none" stroke="none" /><path d="M2.15 2.05 L2.6 1.65 Q2.75 1.5 3.25 1.4 L5.7 0.8 L6.25 0.75 L7 0.8 Q7.75 0.95 8.1 1.45 Q8.4 1.8 8.3 2.3 L8.25 2.55 L8.3 2.7 L8.25 5.05 Q9.55 5.2 9.8 6.65 L9.8 7.1 L9.5 7.7 L8.85 8.45 L8.4 8.65 L7.2 8.55 L6.45 8.05 Q6.05 7.65 6.25 7.05 L6.35 6.55 L6.25 6.15 L6.15 5.3 L6.2 4.85 L5.9 4.9 L4.05 5.05 L4 5.6 L4.6 5.85 Q5.45 6.35 5.45 7.25 L5.35 8 Q5.05 8.9 4.55 9.15 L3.15 9.25 L2.65 9.15 L1.8 8.45 L1.6 7.7 L1.65 7.4 L1.6 4.75 L1.6 3 L1.85 2.4 L2.15 2.05 M5.2 2.85 Q4.6 2.95 4.35 3.2 L4.05 3.7 L4.05 3.85 L4.7 3.8 L5.9 3.55 L6.35 3.45 L6.4 2.9 L5.2 2.85" fill="#a9a9a9" fill-rule="evenodd" stroke="none" /></svg>