<?xml version='1.0' encoding='utf-8'?>
<svg xmlns="http://www.w3.org/2000/svg" width="99.8px" height="40.3px" viewBox="-2 -2 99.8 40.3" data-shape-id="2815"><path d="M10.9 0 L6.35 -0.1 L6.35 -0.15 L5.05 -0.15 L8.88178e-16 15.1 L0.75 18.05 L8.88178e-16 21 L5.05 36.25 L6.35 36.25 L10.9 36.1 L9.2 18 L10.9 0 M86.35 -0.15 L82.4 -0.15 L82.4 36.25 L86.35 36.25" fill="#111111" fill-opacity="1" fill-rule="evenodd" stroke="none" /><path d="L91.35 15.1 L86.35 -0.15" fill="#ffffff" fill-opacity="1" fill-rule="evenodd" stroke="none" /><path d="L90.8 -0.15 L95.8 15.1 L95.1 18.05 L95.8 21 L90.8 36.25 L86.35 36.25" fill="none" stroke="none" /><path d="M0 0" fill="none" stroke="none" /><path d="M90.15 36.3 L95.8 15.35 L90.1 -1.77636e-15 M5.7 0 L0 15.35 L5.75 36.3" fill="none" stroke="none" /></svg>