<?xml version='1.0' encoding='utf-8'?>
<svg xmlns="http://www.w3.org/2000/svg" width="86.3px" height="113.55px" viewBox="-0.25 -10.35 86.3 113.55" data-shape-id="2818"><path d="M73.9 67 L73.9 70.6 L9.8 70.6 L9.8 13.05 L13.4 13.05" fill="#111111" fill-opacity="1" fill-rule="evenodd" stroke="none" /><path d="L13.4 9.45 L77.5 9.45 L77.5 67 L73.9 67" fill="#000000" fill-opacity="0.498" fill-rule="evenodd" stroke="none" /><path d="L73.5 67 L73.5 13.45 L13.4 13.45 L13.4 13.05" fill="none" stroke="none" /><path d="M2 79.3 L-0.25 79.3 L-0.25 3.6 Q37.45 -24.3 83.95 3.6 L83.95 103.2 L2 103.2 L2 79.3" fill="#111111" fill-opacity="1" fill-rule="evenodd" stroke="none" /><path d="M0 0" fill="none" stroke="none" /><path d="M64.3 80.2 L85.95 78.65 L86.05 95.25 L64.4 96.85 L64.3 80.2" fill="#111111" fill-opacity="1" fill-rule="evenodd" stroke="none" /><path d="M15.7 79.25 L51 79.25 L47.9 95.85 L12.6 95.85 L15.7 79.25" fill="#000000" fill-opacity="0.498" fill-rule="evenodd" stroke="none" /></svg>