<?xml version='1.0' encoding='utf-8'?>
<svg xmlns="http://www.w3.org/2000/svg" width="84.2px" height="113.55px" viewBox="-0.25 -10.35 84.2 113.55" data-shape-id="2823"><path d="M-0.25 79.3 L-0.25 3.6 Q37.45 -24.3 83.95 3.6 L83.95 79.3 L74.95 79.3 L57.45 103.2 L24.05 103.2 L8.75 79.3 L-0.25 79.3" fill="#111111" fill-opacity="1" fill-rule="evenodd" stroke="none" /><path d="M73.9 67 L73.9 70.6 L9.8 70.6 L9.8 13.05 L13.4 13.05" fill="none" stroke="none" /><path d="L13.4 9.45 L77.5 9.45 L77.5 67 L73.9 67" fill="#000000" fill-opacity="0.498" fill-rule="evenodd" stroke="none" /><path d="L73.5 67 L73.5 13.45 L13.4 13.45 L13.4 13.05" fill="none" stroke="none" /><path d="M0 0" fill="none" stroke="none" /><path d="M41.25 79.3 L62.9 77.75 L63 94.35 L41.35 95.95 L41.25 79.3" fill="#111111" fill-opacity="1" fill-rule="evenodd" stroke="none" /></svg>