<?xml version='1.0' encoding='utf-8'?>
<svg xmlns="http://www.w3.org/2000/svg" width="114.05px" height="164.85px" viewBox="-13.7 -32.25 114.05 164.85" data-shape-id="2827"><path d="M95.2 -16 L79.25 132.6 L2.25 132.6 L-13.7 -16.1 L19.05 -7.5 L19.1 -7.55" fill="#666666" fill-rule="evenodd" stroke="none" /><path d="L-7.9 -14.65 L-8.55 -20.75 L24.05 -12.2" fill="#ffffff" fill-rule="evenodd" stroke="none" /><path d="L40.5 -27.6 L40.75 -27.6" fill="#666666" fill-rule="evenodd" stroke="none" /><path d="L45.65 -32.25 L46.15 -32.25 L67.6 -12.15 L100.35 -20.75 L84.4 127.95 L80 127.95 L95.45 -16.1 L95.2 -16" fill="#ffffff" fill-rule="evenodd" stroke="none" /><path d="L95.2 -16.1 L62.65 -7.55" fill="#666666" fill-rule="evenodd" stroke="none" /><path d="L62.45 -7.5 L41 -27.6" fill="none" stroke="none" /><path d="L40.75 -27.6" fill="#ffffff" fill-rule="evenodd" stroke="none" /><path d="M19.1 -7.55 L24.05 -12.2" fill="#666666" fill-rule="evenodd" stroke="none" /><path d="M41 -27.6 L41.25 -27.6 L62.65 -7.55 M73.1 12.9 L73.1 14.1 L72.85 14.1" fill="none" stroke="none" /><path d="L8.55 14.1 L8.55 12.9 L4.15 12.9" fill="#666666" fill-rule="evenodd" stroke="none" /><path d="L4.15 79.3" fill="none" stroke="none" /><path d="L78.1 79.3 L78.1 12.9 L73.1 12.9" fill="#666666" fill-rule="evenodd" stroke="none" /><path d="L72.85 12.9 L72.85 14.1" fill="none" stroke="none" /><path d="M4.15 79.3 L3.9 79.3 L3.9 12.9 L4.15 12.9" fill="none" stroke="none" /></svg>